<svg width="150" height="150" viewBox="0 0 150 150" xmlns="http://www.w3.org/2000/svg"><title>Illustration for EOFY homepage tile</title><g fill="none" fill-rule="evenodd"><path d="M105.548 76.46V32.7c0-1.484-1.214-2.7-2.7-2.7h-4.574 4.574c1.485 0 2.7 1.216 2.7 2.7v43.76m-.518-1.37c-.78-1.327-2.245-2.226-3.93-2.226l-.076.003.076-.005c1.686 0 3.15.9 3.93 2.23" fill="#BBC1C1"/><path d="M78.36 110.877l-.153-.23c-.395-.465-.74-.975-1.024-1.524l-1.807-2.69h-35.9V35.39h56.02v41.478c.013.137.022.273.022.414v6.51h1.05v-6.503c0-2.397 1.965-4.355 4.406-4.42V32.702c0-1.485-1.215-2.702-2.7-2.702H36.702c-.37 0-.726.077-1.05.214-.322.137-.613.335-.858.58-.49.49-.794 1.164-.794 1.908V117.3c0 .742.304 1.417.794 1.907.245.245.536.443.858.58.324.136.68.212 1.05.212h39.543v-9.123h2.115" fill="#4D4744"/><path d="M46 95.585c-.456 0-.827-.37-.827-.828V72.725c0-.457.37-.827.828-.827h30.24V64.78H50.39l-3.82 2.6c-.142.095-.31.15-.493.15-.5 0-.904-.404-.904-.903v-24.76c0-.456.373-.828.828-.828h42.835c.456 0 .828.37.828.827v22.085c0 .456-.372.828-.828.828h-3.438v7.118h3.438c.457 0 .828.37.828.827v.332c.418-.125.862-.193 1.325-.193 2.356 0 4.293 1.766 4.51 4.003V35.39H39.473v71.045h35.903l-7.29-10.85H46" fill="#FFF"/><path d="M89.662 63.953V41.867c0-.456-.372-.828-.828-.828H46c-.455 0-.828.37-.828.827v24.76c0 .5.405.902.904.902.182 0 .35-.055.493-.148l3.82-2.6h25.85v-3.506c0-2.446 2.12-4.42 4.635-4.42 2.5 0 4.523 1.98 4.523 4.42v3.505h3.436c.456 0 .828-.372.828-.827M56.208 54.9c-1.41 0-2.554-1.142-2.554-2.554 0-1.41 1.143-2.554 2.554-2.554 1.41 0 2.554 1.145 2.554 2.554 0 1.412-1.145 2.554-2.554 2.554m11.21 0c-1.41 0-2.554-1.142-2.554-2.554 0-1.41 1.143-2.554 2.554-2.554 1.412 0 2.555 1.145 2.555 2.554 0 1.412-1.143 2.554-2.555 2.554m11.21 0c-1.41 0-2.554-1.142-2.554-2.554 0-1.41 1.143-2.554 2.555-2.554 1.41 0 2.553 1.145 2.553 2.554 0 1.412-1.143 2.554-2.554 2.554" fill="#009FDA"/><path d="M88.834 71.898h-3.436V83.79h1.06v-6.5c0-1.99 1.347-3.68 3.204-4.233v-.332c0-.457-.37-.827-.828-.827" fill="#C7BFBB"/><path d="M45.173 72.725v22.032c0 .457.37.828.828.828h22.087l-1.642-2.444c-1.377-2.028-.713-4.82 1.392-6.17 2.086-1.326 4.878-.757 6.26 1.28l2.144 3.188v-19.54H46c-.456 0-.827.37-.827.827m22.244 8.462c1.41 0 2.554 1.143 2.554 2.554 0 1.413-1.142 2.556-2.553 2.556-1.41 0-2.554-1.143-2.554-2.555 0-1.41 1.143-2.553 2.554-2.553m-11.21 0c1.41 0 2.554 1.143 2.554 2.554 0 1.413-1.142 2.556-2.553 2.556-1.41 0-2.554-1.143-2.554-2.555 0-1.41 1.143-2.553 2.554-2.553" fill="#FEC0AB"/><path d="M67.418 86.296c1.41 0 2.554-1.143 2.554-2.554 0-1.412-1.143-2.555-2.554-2.555-1.41 0-2.554 1.143-2.554 2.555 0 1.41 1.143 2.554 2.554 2.554M56.208 86.296c1.41 0 2.554-1.143 2.554-2.554 0-1.412-1.143-2.555-2.554-2.555-1.412 0-2.555 1.143-2.555 2.555 0 1.41 1.143 2.554 2.555 2.554M78.628 49.793c-1.41 0-2.554 1.143-2.554 2.554 0 1.41 1.143 2.554 2.554 2.554 1.41 0 2.554-1.142 2.554-2.553 0-1.41-1.143-2.554-2.554-2.554M67.418 49.793c-1.41 0-2.554 1.143-2.554 2.554 0 1.41 1.143 2.554 2.554 2.554 1.41 0 2.554-1.142 2.554-2.553 0-1.41-1.143-2.554-2.554-2.554M56.208 49.793c-1.412 0-2.555 1.143-2.555 2.554 0 1.41 1.143 2.554 2.555 2.554 1.41 0 2.554-1.142 2.554-2.553 0-1.41-1.143-2.554-2.554-2.554" fill="#FFF"/><path d="M101.1 72.863l-.127.006c-2.44.065-4.404 2.022-4.404 4.42v6.5h-1.053V77.28c0-.14-.007-.277-.02-.414-.215-2.24-2.154-4.005-4.51-4.005-.46 0-.905.07-1.325.193-1.857.556-3.204 2.245-3.204 4.234v6.5h-1.06V61.274c0-2.437-2.02-4.417-4.522-4.417-2.516 0-4.635 1.97-4.635 4.417v30.162l-2.142-3.19c-1.384-2.035-4.174-2.602-6.262-1.277-2.103 1.35-2.767 4.142-1.392 6.17l1.644 2.444 9.095 13.54c.284.547.628 1.058 1.024 1.525l.153.227h37.35v-29.32c0-2.437-1.982-4.417-4.498-4.417-2.5 0-4.538 1.987-4.538 4.417v2.232h-1.044V77.28c0-.28-.03-.556-.08-.822-.397-2.04-2.233-3.597-4.45-3.597M80.643 58.356c3.982.16 3.186 5.414 3.186 5.414h-6.372c-.637-5.414 3.186-5.414 3.186-5.414" fill="#F0A976"/><g fill="#FFF"><path d="M83.83 63.77s.796-5.256-3.186-5.414c0 0-3.823 0-3.184 5.414h6.37M78.36 110.876h-2.114V120h39.463v-9.124H78.36"/></g><path d="M67.49 116.516c-1.675 0-3.034-1.357-3.034-3.03 0-1.673 1.36-3.034 3.033-3.034 1.676 0 3.03 1.36 3.03 3.033 0 1.674-1.354 3.03-3.03 3.03" fill="#95A0A6"/></g></svg>