<svg width="2400" height="1350" viewBox="0 0 2400 1350" fill="none" xmlns="http://www.w3.org/2000/svg">
<path d="M1749.51 1141.24C1749.51 1141.24 1750.03 1141.24 1750.03 1140.72C1749.51 1141.24 1749.51 1141.24 1749.51 1141.24Z" fill="white"/>
<path d="M1749.51 1142.29L1748.99 1140.72H1749.51L1750.03 1141.77V1142.29H1749.51Z" fill="black"/>
<path d="M1746.39 1142.81C1747.43 1142.29 1748.47 1141.76 1749.51 1141.24C1747.95 1141.76 1746.91 1142.29 1746.39 1142.81Z" fill="white"/>
<path d="M1746.39 1143.33L1745.87 1141.77C1746.91 1141.24 1747.95 1140.72 1748.99 1140.2L1749.51 1141.77C1748.47 1142.81 1747.43 1143.33 1746.39 1143.33Z" fill="black"/>
<g clip-path="url(#clip0)">
<path d="M1494.59 289.227C1490.64 283.497 1486.68 277.871 1482.73 272.506C1401.88 157.903 1318.64 398.308 1193.32 406.278C1098.06 408.206 1021.95 343.768 953.12 364.292C1023.51 379.294 1104.56 433.574 1190.82 433.574C1305.38 433.574 1410.88 279.017 1494.59 289.227Z" fill="#0094AA"/>
<path d="M722.861 881.514C710.5 845.831 703.215 808.585 701.219 770.87C700.293 808.89 707.679 846.653 722.861 881.514Z" fill="#DA6022"/>
<path d="M1680.68 759.045C1676.7 889.031 1625.82 1013.17 1537.46 1108.48C1448.7 1203.23 1326.08 1010.49 1190.66 1010.49C1130.31 1010.49 1072.46 1039.77 1018.98 1063.89C1075.06 1051.54 1134.63 1035.55 1193.06 1038.78C1337.37 1052.79 1494.33 1265.9 1585.06 1148.17C1668.04 1037.42 1700.29 900.266 1680.68 759.045Z" fill="#DA6022"/>
<path d="M1193.16 444.045C1094.31 444.045 1002.54 375.544 926.224 377.055C913.615 385.91 902.483 396.704 893.24 409.04C811.614 506.66 745.699 587.299 715.473 688.461C714.571 699.922 714.138 711.66 714.173 723.676C714.173 856.094 767.758 934.492 854.638 1021.28C941.519 1108.06 1061.07 972.832 1193.37 972.832C1325.67 972.832 1445.17 1149.58 1531.89 1062.59C1576.46 1018.12 1611.82 965.263 1635.93 907.065C1660.03 848.867 1672.41 786.472 1672.36 723.467C1672.36 719.091 1672.36 714.716 1672.36 710.288C1645.25 584.121 1582.67 428.991 1514.72 319.597C1429.4 271.621 1316.77 444.045 1193.16 444.045Z" fill="#FFFBDC"/>
<path d="M1531.89 333.297C1615.7 417.27 1668.61 580.057 1671.99 710.496C1673.81 719.039 1675.53 727.53 1677.19 735.813C1678.86 744.095 1679.74 751.44 1680.84 759.046C1681.1 752.222 1681.25 745.398 1681.25 738.574C1681.25 594.07 1626.37 407.424 1537.61 312.773C1526.58 299.986 1511.3 291.623 1494.59 289.228C1501.25 298.969 1507.91 309.127 1514.51 319.806C1520.88 323.51 1526.72 328.047 1531.89 333.297V333.297Z" fill="#8A1702"/>
<path d="M806.984 1019.61C769.371 968.507 740.809 924.438 722.861 881.514C746.844 949.233 788.828 1004.5 843.817 1063.21C893.032 1115.67 952.652 1093.68 1019.09 1063.73C935.64 1082.07 859.893 1092.38 806.984 1019.61Z" fill="#8A1702"/>
<path d="M715.473 688.46C724.161 573.857 775.613 486.968 854.43 408.048C863.683 398.273 874.811 390.467 887.146 385.097C899.482 379.727 912.773 376.902 926.223 376.793C934.427 371.185 943.447 366.88 952.964 364.03C912.801 355.435 876.072 359.655 843.713 394.035C754.959 488.739 700.074 593.808 700.074 738.312C700.074 749.459 700.438 760.243 701.114 770.765C701.766 750.712 704.468 730.778 709.178 711.276C711.155 703.723 713.236 696.065 715.473 688.46Z" fill="#8A1702"/>
<path d="M926.224 377.054C912.773 377.163 899.483 379.987 887.147 385.358C874.812 390.728 863.684 398.534 854.43 408.309C775.614 487.228 724.37 574.066 715.474 688.721C745.7 587.558 811.615 506.919 893.241 409.299C902.462 396.871 913.595 385.987 926.224 377.054Z" fill="#FCBD1B"/>
<path d="M926.224 377.054C912.773 377.163 899.483 379.987 887.147 385.358C874.812 390.728 863.684 398.534 854.43 408.309C775.614 487.228 724.37 574.066 715.474 688.721C745.7 587.558 811.615 506.919 893.241 409.299C902.462 396.871 913.595 385.987 926.224 377.054Z" fill="#F39325"/>
<path d="M1514.36 319.805C1582.3 429.198 1644.89 584.328 1671.99 710.495C1668.61 580.265 1615.7 417.269 1531.89 333.297C1526.67 328.035 1520.78 323.497 1514.36 319.805V319.805Z" fill="#005162"/>
<g style="mix-blend-mode:soft-light">
<path d="M1514.36 319.805C1582.3 429.198 1644.89 584.328 1671.99 710.495C1668.61 580.265 1615.7 417.269 1531.89 333.297C1526.67 328.035 1520.78 323.497 1514.36 319.805V319.805Z" fill="#005162"/>
</g>
<path d="M1193.16 444.045C1316.77 444.045 1429.4 271.62 1514.36 319.805C1507.75 309.126 1501.09 298.968 1494.43 289.227C1410.88 278.809 1305.38 433.574 1190.66 433.574C1104.41 433.574 1023.35 379.294 952.965 364.292C943.448 367.142 934.428 371.447 926.224 377.054C1002.54 375.543 1094.37 444.045 1193.16 444.045Z" fill="#0094AA"/>
<path d="M1193.16 444.045C1316.77 444.045 1429.4 271.62 1514.36 319.805C1507.75 309.126 1501.09 298.968 1494.43 289.227C1410.88 278.809 1305.38 433.574 1190.66 433.574C1104.41 433.574 1023.35 379.294 952.965 364.292C943.448 367.142 934.428 371.447 926.224 377.054C1002.54 375.543 1094.37 444.045 1193.16 444.045Z" fill="#009285"/>
<path d="M1537.46 1108.48C1625.82 1013.17 1676.7 889.032 1680.68 759.046C1679.59 751.284 1678.44 743.418 1677.04 735.813C1675.63 728.207 1673.81 719.039 1671.84 710.496C1671.84 714.924 1671.84 719.299 1671.84 723.675C1671.89 786.68 1659.51 849.075 1635.41 907.273C1611.3 965.471 1575.94 1018.32 1531.37 1062.79C1444.65 1149.58 1324.94 972.831 1192.64 972.831C1060.34 972.831 940.635 1108.27 853.91 1021.28C767.186 934.283 713.445 856.093 713.445 723.675C713.445 711.659 713.878 699.921 714.745 688.461C712.508 696.066 710.427 703.724 708.554 711.538C704.1 731.014 701.642 750.895 701.219 770.871C703.229 808.533 710.514 845.725 722.861 881.358C740.81 924.282 769.371 968.352 806.984 1019.45C859.893 1092.38 935.64 1081.96 1019.09 1063.58C1072.46 1039.46 1130.32 1010.18 1190.77 1010.18C1326.08 1010.49 1448.7 1203.23 1537.46 1108.48Z" fill="#DA6022"/>
<path d="M1537.46 1108.48C1625.82 1013.17 1676.7 889.032 1680.68 759.046C1679.59 751.284 1678.44 743.418 1677.04 735.813C1675.63 728.207 1673.81 719.039 1671.84 710.496C1671.84 714.924 1671.84 719.299 1671.84 723.675C1671.89 786.68 1659.51 849.075 1635.41 907.273C1611.3 965.471 1575.94 1018.32 1531.37 1062.79C1444.65 1149.58 1324.94 972.831 1192.64 972.831C1060.34 972.831 940.635 1108.27 853.91 1021.28C767.186 934.283 713.445 856.093 713.445 723.675C713.445 711.659 713.878 699.921 714.745 688.461C712.508 696.066 710.427 703.724 708.554 711.538C704.1 731.014 701.642 750.895 701.219 770.871C703.229 808.533 710.514 845.725 722.861 881.358C740.81 924.282 769.371 968.352 806.984 1019.45C859.893 1092.38 935.64 1081.96 1019.09 1063.58C1072.46 1039.46 1130.32 1010.18 1190.77 1010.18C1326.08 1010.49 1448.7 1203.23 1537.46 1108.48Z" fill="#D52C15"/>
<path d="M951.663 931.99C951.18 932.738 950.603 933.421 949.947 934.022C949.24 934.66 948.453 935.203 947.606 935.637C946.67 936.078 945.695 936.426 944.692 936.679C943.639 936.955 942.555 937.095 941.467 937.096C939.506 937.115 937.56 936.743 935.744 936.002C934.03 935.315 932.472 934.287 931.166 932.98C929.861 931.672 928.834 930.113 928.148 928.396C927.408 926.541 927.037 924.559 927.056 922.562C927.031 920.564 927.403 918.581 928.148 916.728C928.856 915.023 929.88 913.467 931.166 912.143C932.474 910.839 934.031 909.812 935.744 909.122C937.56 908.381 939.506 908.009 941.467 908.028C943.248 908.022 945.014 908.358 946.669 909.018C948.404 909.731 949.914 910.902 951.039 912.404L948.594 914.227C948.273 913.743 947.888 913.305 947.45 912.925C946.92 912.467 946.345 912.065 945.733 911.727C945.084 911.386 944.404 911.107 943.704 910.893C942.994 910.687 942.258 910.582 941.519 910.581C939.872 910.571 938.241 910.908 936.733 911.57C935.382 912.177 934.176 913.065 933.195 914.175C932.202 915.299 931.442 916.609 930.958 918.03C930.43 919.482 930.166 921.017 930.177 922.562C930.174 924.106 930.439 925.639 930.958 927.094C931.443 928.498 932.203 929.791 933.195 930.897C934.177 932.019 935.382 932.924 936.733 933.553C938.244 934.199 939.875 934.518 941.519 934.491C942.229 934.544 942.942 934.544 943.652 934.491C944.385 934.343 945.1 934.116 945.785 933.814C946.498 933.497 947.15 933.056 947.71 932.511C948.373 931.937 948.951 931.27 949.426 930.532L951.663 931.99Z" fill="#0094AA"/>
<path d="M957.23 927.928C957.32 928.826 957.548 929.705 957.907 930.533C958.252 931.316 958.747 932.024 959.363 932.617C959.971 933.202 960.675 933.678 961.444 934.023C962.239 934.338 963.087 934.498 963.941 934.492C965.203 934.529 966.448 934.204 967.531 933.554C968.448 933.006 969.23 932.258 969.82 931.366L971.797 932.981C970.852 934.242 969.622 935.259 968.207 935.951C966.86 936.532 965.409 936.833 963.941 936.836C962.699 936.853 961.466 936.622 960.314 936.157C959.162 935.692 958.114 935.002 957.23 934.127C956.377 933.242 955.706 932.198 955.253 931.054C954.768 929.845 954.521 928.554 954.525 927.251C954.505 925.935 954.735 924.627 955.201 923.396C955.655 922.269 956.327 921.242 957.178 920.375C958.022 919.488 959.04 918.785 960.168 918.31C961.296 917.835 962.51 917.598 963.733 917.614C965.007 917.595 966.269 917.862 967.427 918.396C968.469 918.841 969.408 919.497 970.184 920.323C970.925 921.186 971.506 922.173 971.901 923.24C972.281 924.382 972.474 925.578 972.473 926.782V927.928H957.23ZM969.664 925.845C969.705 925.072 969.587 924.299 969.319 923.574C969.051 922.848 968.637 922.185 968.103 921.625C967.531 921.058 966.847 920.616 966.094 920.329C965.342 920.042 964.538 919.916 963.733 919.958C962.893 919.976 962.063 920.153 961.288 920.479C960.53 920.77 959.839 921.213 959.259 921.782C958.679 922.314 958.203 922.95 957.855 923.657C957.5 924.331 957.321 925.083 957.334 925.845H969.664Z" fill="#0094AA"/>
<path d="M980.277 936.367H977.728V906.831H980.277V936.367Z" fill="#0094AA"/>
<path d="M988.289 927.928C988.379 928.826 988.607 929.705 988.965 930.533C989.31 931.316 989.805 932.024 990.422 932.617C991.01 933.201 991.697 933.677 992.451 934.023C993.263 934.339 994.128 934.498 995 934.492C996.261 934.523 997.505 934.198 998.589 933.554C999.507 933.006 1000.29 932.258 1000.88 931.366L1002.86 932.981C1001.9 934.255 1000.65 935.275 999.214 935.951C997.886 936.537 996.451 936.838 995 936.836C993.713 936.867 992.435 936.618 991.254 936.107C990.128 935.653 989.102 934.98 988.237 934.127C987.4 933.239 986.746 932.195 986.312 931.054C985.801 929.853 985.553 928.556 985.583 927.251C985.564 925.935 985.793 924.627 986.26 923.396C986.713 922.269 987.385 921.242 988.237 920.375C989.062 919.509 990.052 918.818 991.15 918.343C992.302 917.857 993.541 917.609 994.792 917.614C996.066 917.595 997.328 917.862 998.485 918.396C999.521 918.853 1000.46 919.508 1001.24 920.323C1001.99 921.175 1002.55 922.167 1002.91 923.24C1003.33 924.373 1003.54 925.573 1003.53 926.782V927.928H988.289ZM1000.72 925.845C1000.76 925.072 1000.65 924.299 1000.38 923.574C1000.11 922.848 999.695 922.185 999.162 921.625C998.59 921.058 997.905 920.616 997.153 920.329C996.4 920.042 995.596 919.916 994.792 919.958C993.951 919.976 993.121 920.153 992.347 920.479C991.588 920.77 990.898 921.213 990.318 921.782C989.737 922.314 989.261 922.95 988.913 923.657C988.559 924.331 988.38 925.083 988.393 925.845H1000.72Z" fill="#0094AA"/>
<path d="M1008.21 906.831H1010.76V921.156C1011.15 920.536 1011.64 919.989 1012.22 919.542C1012.79 919.116 1013.4 918.749 1014.04 918.447C1014.66 918.177 1015.31 917.968 1015.97 917.822C1016.59 917.771 1017.22 917.771 1017.84 917.822C1019.17 917.813 1020.5 918.06 1021.74 918.552C1022.89 919.011 1023.94 919.703 1024.81 920.583C1025.69 921.434 1026.39 922.464 1026.84 923.605C1027.32 924.832 1027.57 926.14 1027.57 927.459C1027.57 928.762 1027.32 930.054 1026.84 931.262C1026.39 932.419 1025.7 933.466 1024.81 934.336C1023.93 935.201 1022.89 935.875 1021.74 936.315C1020.51 936.832 1019.18 937.08 1017.84 937.044C1017.22 937.096 1016.59 937.096 1015.97 937.044C1015.3 936.906 1014.65 936.678 1014.04 936.367C1013.38 936.105 1012.76 935.735 1012.22 935.273C1011.63 934.859 1011.14 934.327 1010.76 933.711V933.711V936.732H1008.21V906.831ZM1024.86 927.251C1024.88 926.271 1024.7 925.297 1024.34 924.386C1024.05 923.539 1023.59 922.759 1022.99 922.094C1022.36 921.442 1021.62 920.912 1020.8 920.531C1019.9 920.146 1018.93 919.951 1017.94 919.958C1016.94 919.951 1015.95 920.146 1015.03 920.531C1014.16 920.91 1013.37 921.439 1012.69 922.094C1012.04 922.751 1011.53 923.53 1011.18 924.386C1010.82 925.297 1010.64 926.271 1010.66 927.251C1010.63 928.212 1010.79 929.169 1011.14 930.065C1011.49 930.96 1012.01 931.775 1012.69 932.46C1013.37 933.099 1014.17 933.611 1015.03 933.971C1015.94 934.381 1016.94 934.577 1017.94 934.544C1018.93 934.576 1019.91 934.38 1020.8 933.971C1021.63 933.631 1022.38 933.115 1022.99 932.459C1023.6 931.802 1024.06 931.021 1024.34 930.168C1024.72 929.207 1024.9 928.179 1024.86 927.147V927.251Z" fill="#0094AA"/>
<path d="M1032.3 923.812C1032.3 922.979 1032.3 922.197 1032.3 921.364C1032.3 920.53 1032.3 919.436 1032.3 918.082H1034.85V921.52C1035.06 921.008 1035.32 920.519 1035.63 920.062C1035.98 919.598 1036.4 919.194 1036.88 918.863C1037.38 918.477 1037.94 918.178 1038.54 917.978C1039.25 917.739 1039.99 917.616 1040.73 917.613C1041.36 917.612 1041.99 917.699 1042.6 917.874L1042.08 920.426C1041.6 920.322 1041.1 920.322 1040.62 920.426C1039.74 920.397 1038.86 920.594 1038.08 920.999C1037.42 921.35 1036.83 921.828 1036.36 922.406C1035.9 922.983 1035.55 923.635 1035.32 924.333C1035.08 924.947 1034.95 925.601 1034.95 926.26V936.679H1032.41L1032.3 923.812Z" fill="#0094AA"/>
<path d="M1056.65 925.166V924.698C1056.74 924.058 1056.69 923.405 1056.49 922.79C1056.29 922.175 1055.95 921.615 1055.49 921.156C1055.04 920.696 1054.48 920.348 1053.87 920.14C1053.26 919.932 1052.61 919.869 1051.97 919.957C1049.9 919.94 1047.9 920.724 1046.4 922.145L1044.84 920.27C1045.88 919.325 1047.11 918.602 1048.44 918.145C1049.78 917.689 1051.19 917.508 1052.59 917.613C1053.46 917.62 1054.32 917.761 1055.14 918.03C1055.92 918.293 1056.64 918.699 1057.27 919.228C1057.87 919.789 1058.34 920.461 1058.68 921.207C1059.07 922.128 1059.27 923.123 1059.25 924.125V932.355C1059.2 933.084 1059.2 933.815 1059.25 934.543C1059.21 935.167 1059.21 935.794 1059.25 936.418H1056.75C1056.7 935.934 1056.7 935.444 1056.75 934.96C1056.73 934.457 1056.73 933.952 1056.75 933.449V933.449C1056.12 934.554 1055.2 935.471 1054.1 936.106C1052.91 936.66 1051.61 936.928 1050.3 936.887C1049.51 936.886 1048.72 936.781 1047.96 936.575C1047.24 936.365 1046.57 936.01 1045.98 935.533C1045.37 935.12 1044.88 934.542 1044.58 933.866C1044.2 933.163 1044 932.374 1044.01 931.574C1043.95 930.285 1044.38 929.023 1045.2 928.032C1045.98 927.175 1046.97 926.53 1048.06 926.156C1049.26 925.732 1050.5 925.469 1051.76 925.375H1055.4L1056.65 925.166ZM1055.35 927.302H1052.9C1051.96 927.399 1051.02 927.556 1050.09 927.771C1049.26 928.01 1048.48 928.418 1047.8 928.969C1047.48 929.222 1047.23 929.548 1047.06 929.919C1046.88 930.29 1046.8 930.696 1046.82 931.105C1046.83 931.619 1046.96 932.122 1047.21 932.575C1047.45 933.027 1047.8 933.416 1048.22 933.71C1048.64 933.975 1049.09 934.168 1049.57 934.283H1051.13C1051.97 934.303 1052.81 934.143 1053.58 933.814C1054.23 933.52 1054.82 933.094 1055.3 932.564C1055.78 932.026 1056.14 931.385 1056.34 930.688C1056.55 929.943 1056.65 929.171 1056.65 928.396V927.146L1055.35 927.302Z" fill="#0094AA"/>
<path d="M1074.65 920.427H1069.45V931.21C1069.36 931.762 1069.36 932.325 1069.45 932.877C1069.53 933.246 1069.71 933.586 1069.97 933.867C1070.2 934.106 1070.48 934.285 1070.8 934.388H1071.89H1073.24L1074.55 933.867V936.263C1073.44 936.703 1072.25 936.916 1071.06 936.888H1069.55C1069.01 936.745 1068.51 936.477 1068.09 936.107C1067.61 935.726 1067.23 935.223 1067 934.648C1066.66 933.878 1066.5 933.041 1066.53 932.2V920.635H1062.79V918.291H1066.64V913.082H1069.24V918.291H1074.44L1074.65 920.427Z" fill="#0094AA"/>
<path d="M1081.88 911.05C1081.9 911.306 1081.86 911.563 1081.76 911.799C1081.66 912.035 1081.51 912.243 1081.31 912.405C1081.14 912.573 1080.93 912.706 1080.71 912.795C1080.49 912.885 1080.25 912.929 1080.01 912.925C1079.77 912.928 1079.54 912.883 1079.33 912.793C1079.11 912.704 1078.92 912.572 1078.76 912.405C1078.55 912.246 1078.39 912.04 1078.28 911.804C1078.17 911.568 1078.12 911.31 1078.13 911.05C1078.13 910.799 1078.18 910.549 1078.29 910.322C1078.4 910.096 1078.56 909.899 1078.76 909.748C1078.92 909.574 1079.11 909.433 1079.32 909.335C1079.54 909.237 1079.77 909.182 1080.01 909.175C1080.5 909.187 1080.97 909.393 1081.31 909.748C1081.5 909.904 1081.65 910.104 1081.75 910.33C1081.85 910.556 1081.89 910.803 1081.88 911.05V911.05ZM1081.31 936.367H1078.76V918.083H1081.31V936.367Z" fill="#0094AA"/>
<path d="M1090 918.083C1090.02 918.586 1090.02 919.09 1090 919.593C1090.02 920.079 1090.02 920.566 1090 921.052C1090.3 920.54 1090.67 920.067 1091.09 919.645C1091.55 919.239 1092.06 918.89 1092.6 918.603C1093.14 918.298 1093.72 918.054 1094.31 917.874C1094.91 917.715 1095.52 917.627 1096.14 917.614C1097.09 917.538 1098.04 917.667 1098.94 917.99C1099.84 918.313 1100.65 918.824 1101.34 919.489C1102.5 920.968 1103.09 922.818 1103 924.698V936.263H1100.4V926.157C1100.52 924.542 1100.16 922.929 1099.36 921.521C1098.92 920.922 1098.32 920.453 1097.63 920.16C1096.95 919.867 1096.2 919.761 1095.46 919.854H1094.37C1093.69 920.02 1093.05 920.321 1092.49 920.739C1091.75 921.286 1091.14 922 1090.72 922.823C1090.14 924.04 1089.88 925.383 1089.94 926.73V936.106H1087.34V921.937C1087.34 921.416 1087.34 920.791 1087.34 920.062C1087.34 919.333 1087.34 918.551 1087.34 917.874L1090 918.083Z" fill="#0094AA"/>
<path d="M1110.6 940.065C1111.4 941.083 1112.41 941.918 1113.56 942.513C1114.81 943.106 1116.18 943.409 1117.57 943.399C1118.71 943.448 1119.84 943.253 1120.9 942.826C1121.74 942.52 1122.5 941.999 1123.08 941.315C1123.66 940.649 1124.08 939.868 1124.33 939.023C1124.56 938.103 1124.68 937.159 1124.7 936.21V932.928C1123.97 934.091 1122.92 935.015 1121.68 935.585C1120.48 936.108 1119.19 936.374 1117.88 936.366C1116.62 936.383 1115.36 936.153 1114.19 935.689C1113.06 935.231 1112.02 934.579 1111.12 933.762C1110.27 932.903 1109.58 931.897 1109.09 930.793C1108.61 929.619 1108.36 928.363 1108.36 927.094C1108.35 925.825 1108.6 924.567 1109.09 923.395C1109.52 922.271 1110.18 921.244 1111.01 920.374C1111.84 919.508 1112.83 918.817 1113.93 918.343C1115.12 917.857 1116.39 917.609 1117.67 917.613H1119.39C1120.02 917.732 1120.63 917.925 1121.21 918.186C1121.86 918.462 1122.47 918.812 1123.03 919.228C1123.67 919.728 1124.24 920.326 1124.7 920.999V920.999V917.926H1127.25V936.054C1127.24 937.123 1127.12 938.189 1126.88 939.231C1126.62 940.349 1126.12 941.397 1125.42 942.305C1124.65 943.322 1123.63 944.128 1122.46 944.649C1120.82 945.371 1119.04 945.693 1117.26 945.587C1115.58 945.604 1113.93 945.303 1112.37 944.701C1110.9 944.048 1109.57 943.109 1108.46 941.94L1110.6 940.065ZM1111.07 926.99C1111.07 927.917 1111.25 928.835 1111.59 929.699C1111.92 930.536 1112.41 931.298 1113.04 931.939C1113.65 932.573 1114.38 933.086 1115.18 933.449C1116.02 933.853 1116.95 934.049 1117.88 934.022C1118.79 934.028 1119.69 933.869 1120.53 933.553C1121.36 933.21 1122.12 932.716 1122.77 932.095C1123.42 931.48 1123.94 930.735 1124.28 929.907C1124.65 928.982 1124.81 927.985 1124.75 926.99C1124.75 926.066 1124.59 925.149 1124.28 924.281C1123.98 923.452 1123.52 922.69 1122.93 922.041C1122.3 921.399 1121.56 920.886 1120.74 920.53C1119.84 920.145 1118.86 919.95 1117.88 919.957C1116.95 919.955 1116.03 920.151 1115.18 920.53C1113.54 921.276 1112.26 922.618 1111.59 924.281C1111.23 925.195 1111.06 926.167 1111.07 927.146V926.99Z" fill="#0094AA"/>
<path d="M1144.36 936.367H1141.08L1153.1 908.706H1155.81L1167.82 936.367H1164.55L1161.53 929.126H1147.38L1144.36 936.367ZM1148.42 926.522H1160.44L1154.45 911.988L1148.42 926.522Z" fill="#0094AA"/>
<path d="M1183.8 936.367C1183.8 935.898 1183.8 935.377 1183.8 934.908V933.449C1183.49 933.945 1183.12 934.4 1182.7 934.804C1182.25 935.226 1181.74 935.593 1181.2 935.898C1180.66 936.199 1180.08 936.427 1179.48 936.575C1178.89 936.76 1178.27 936.847 1177.66 936.835C1176.71 936.908 1175.76 936.783 1174.87 936.469C1173.97 936.156 1173.15 935.66 1172.46 935.012C1171.29 933.533 1170.7 931.684 1170.79 929.803V918.187H1173.34V928.345C1173.25 929.228 1173.25 930.118 1173.34 931.001C1173.46 931.708 1173.73 932.382 1174.12 932.981C1174.52 933.518 1175.06 933.933 1175.68 934.179C1176.43 934.505 1177.25 934.648 1178.07 934.595H1179.17C1179.84 934.455 1180.48 934.171 1181.04 933.762C1181.78 933.194 1182.39 932.464 1182.81 931.626C1183.39 930.409 1183.66 929.066 1183.59 927.719V918.343H1186.19V932.356C1186.19 932.876 1186.19 933.502 1186.19 934.231C1186.19 934.96 1186.19 935.689 1186.19 936.367H1183.8Z" fill="#0094AA"/>
<path d="M1202 922.458C1201.63 921.737 1201.1 921.112 1200.44 920.635C1199.73 920.187 1198.9 919.952 1198.05 919.957C1197.6 919.906 1197.15 919.906 1196.7 919.957C1196.25 920.044 1195.83 920.221 1195.45 920.478C1195.1 920.673 1194.81 920.961 1194.62 921.312C1194.35 921.672 1194.22 922.115 1194.25 922.562C1194.23 922.924 1194.3 923.284 1194.46 923.611C1194.61 923.939 1194.85 924.223 1195.14 924.437C1195.98 924.906 1196.89 925.24 1197.84 925.427L1200.44 926.052C1201.67 926.322 1202.78 926.937 1203.67 927.823C1204.09 928.248 1204.41 928.754 1204.63 929.309C1204.84 929.865 1204.94 930.458 1204.92 931.053C1204.95 931.945 1204.73 932.828 1204.29 933.606C1203.92 934.308 1203.38 934.914 1202.73 935.377C1202.04 935.842 1201.26 936.177 1200.44 936.366C1199.57 936.573 1198.68 936.678 1197.79 936.679C1196.45 936.692 1195.12 936.426 1193.89 935.898C1192.61 935.306 1191.54 934.344 1190.82 933.137L1193 931.626C1193.5 932.433 1194.18 933.111 1194.98 933.606C1195.83 934.111 1196.8 934.364 1197.79 934.335H1199.35C1199.85 934.231 1200.33 934.036 1200.76 933.762C1201.17 933.549 1201.51 933.224 1201.74 932.824C1202 932.422 1202.13 931.948 1202.11 931.47C1202.13 931.076 1202.05 930.682 1201.87 930.333C1201.68 929.983 1201.41 929.692 1201.07 929.49C1200.31 929.037 1199.49 928.719 1198.62 928.553L1196.13 927.928L1194.88 927.563C1194.33 927.347 1193.8 927.067 1193.32 926.73C1192.79 926.352 1192.35 925.874 1192.02 925.323C1191.62 924.662 1191.43 923.904 1191.44 923.135C1191.43 922.285 1191.63 921.444 1192.02 920.687C1192.36 919.991 1192.88 919.398 1193.52 918.968C1194.18 918.503 1194.93 918.167 1195.71 917.978C1196.52 917.747 1197.36 917.625 1198.21 917.613C1199.43 917.605 1200.64 917.872 1201.74 918.395C1202.86 918.901 1203.76 919.787 1204.29 920.895L1202 922.458Z" fill="#0094AA"/>
<path d="M1218.39 920.427H1213.19V931.21C1213.12 931.764 1213.12 932.324 1213.19 932.877C1213.29 933.251 1213.49 933.592 1213.76 933.867C1213.97 934.129 1214.27 934.312 1214.59 934.388H1215.63H1217.04C1217.47 934.255 1217.89 934.081 1218.29 933.867V936.263C1217.18 936.703 1215.99 936.916 1214.8 936.888C1214.28 936.939 1213.76 936.939 1213.24 936.888C1212.71 936.722 1212.22 936.457 1211.78 936.107C1211.33 935.698 1210.96 935.202 1210.69 934.648C1210.4 933.867 1210.26 933.035 1210.28 932.2V920.635H1206.43V918.291H1210.28V913.082H1212.83V918.291H1218.03L1218.39 920.427Z" fill="#0094AA"/>
<path d="M1222.14 923.812C1222.14 922.979 1222.14 922.198 1222.14 921.364C1222.14 920.531 1222.14 919.437 1222.14 918.082H1224.69V921.521C1224.9 921.008 1225.16 920.519 1225.47 920.062C1225.83 919.611 1226.25 919.208 1226.72 918.864C1227.22 918.478 1227.78 918.178 1228.38 917.978C1229.72 917.565 1231.15 917.565 1232.49 917.978L1231.97 920.531C1231.47 920.432 1230.96 920.432 1230.46 920.531C1229.59 920.486 1228.73 920.684 1227.96 921.104C1227.28 921.437 1226.68 921.917 1226.2 922.51C1225.74 923.087 1225.39 923.74 1225.16 924.438C1224.95 925.061 1224.85 925.71 1224.84 926.365V936.783H1222.24L1222.14 923.812Z" fill="#0094AA"/>
<path d="M1246.54 925.167V924.698C1246.63 924.058 1246.58 923.405 1246.38 922.79C1246.18 922.175 1245.83 921.616 1245.38 921.156C1244.93 920.696 1244.37 920.348 1243.76 920.14C1243.15 919.932 1242.5 919.87 1241.86 919.958C1239.79 919.929 1237.79 920.715 1236.29 922.146L1234.73 920.27C1235.77 919.332 1236.98 918.613 1238.31 918.156C1239.63 917.7 1241.03 917.515 1242.43 917.614C1243.29 917.621 1244.15 917.761 1244.98 918.03C1245.77 918.27 1246.49 918.678 1247.11 919.228C1247.74 919.773 1248.23 920.448 1248.57 921.208C1248.94 922.133 1249.12 923.127 1249.09 924.125V932.356C1249.09 933.033 1249.09 933.762 1249.09 934.543C1249.09 935.325 1249.09 935.95 1249.09 936.419H1246.59C1246.59 936.002 1246.59 935.481 1246.59 934.96C1246.56 934.457 1246.56 933.953 1246.59 933.449V933.449C1245.99 934.577 1245.06 935.501 1243.94 936.106C1242.77 936.656 1241.48 936.924 1240.19 936.888C1239.4 936.893 1238.61 936.788 1237.85 936.575C1237.1 936.382 1236.41 936.026 1235.82 935.533C1235.23 935.09 1234.75 934.521 1234.42 933.866C1234.05 933.16 1233.87 932.37 1233.9 931.574C1233.83 930.293 1234.24 929.031 1235.04 928.032C1235.84 927.175 1236.84 926.53 1237.95 926.157C1239.14 925.726 1240.39 925.464 1241.65 925.375H1245.24L1246.54 925.167ZM1245.19 927.303H1242.74C1241.8 927.408 1240.86 927.565 1239.93 927.771C1239.09 928.011 1238.32 928.419 1237.64 928.97C1237.33 929.228 1237.08 929.556 1236.92 929.927C1236.76 930.297 1236.68 930.701 1236.71 931.105C1236.68 931.633 1236.81 932.157 1237.07 932.616C1237.31 933.05 1237.65 933.424 1238.06 933.71C1238.49 933.984 1238.96 934.179 1239.46 934.283C1239.96 934.337 1240.47 934.337 1240.97 934.283C1241.81 934.303 1242.64 934.143 1243.42 933.814C1244.09 933.526 1244.69 933.1 1245.19 932.564C1245.65 932.024 1245.99 931.382 1246.17 930.689C1246.43 929.952 1246.55 929.176 1246.54 928.396V927.146L1245.19 927.303Z" fill="#0094AA"/>
<path d="M1258.24 936.367H1255.64V906.831H1258.24V936.367Z" fill="#0094AA"/>
<path d="M1268.18 911.051C1268.19 911.305 1268.14 911.558 1268.05 911.792C1267.95 912.027 1267.8 912.236 1267.61 912.405C1267.26 912.743 1266.79 912.931 1266.31 912.931C1265.82 912.931 1265.36 912.743 1265.01 912.405C1264.82 912.236 1264.67 912.027 1264.57 911.792C1264.47 911.558 1264.42 911.305 1264.43 911.051C1264.43 910.805 1264.48 910.562 1264.58 910.337C1264.68 910.113 1264.82 909.912 1265.01 909.748C1265.17 909.569 1265.37 909.425 1265.6 909.327C1265.82 909.228 1266.06 909.178 1266.31 909.178C1266.55 909.178 1266.79 909.228 1267.02 909.327C1267.24 909.425 1267.44 909.569 1267.61 909.748C1267.79 909.912 1267.94 910.113 1268.03 910.337C1268.13 910.562 1268.18 910.805 1268.18 911.051V911.051ZM1267.61 936.367H1265.01V918.083H1267.61V936.367Z" fill="#0094AA"/>
<path d="M1285.5 925.167V924.698C1285.6 924.058 1285.54 923.405 1285.34 922.79C1285.14 922.175 1284.8 921.616 1284.35 921.156C1283.89 920.696 1283.34 920.348 1282.72 920.14C1282.11 919.932 1281.46 919.87 1280.82 919.958C1278.75 919.929 1276.75 920.715 1275.25 922.146L1273.69 920.27C1274.73 919.332 1275.95 918.613 1277.27 918.156C1278.6 917.7 1280 917.515 1281.39 917.614C1282.26 917.621 1283.12 917.761 1283.94 918.03C1284.73 918.282 1285.45 918.69 1286.08 919.228C1286.69 919.786 1287.18 920.459 1287.53 921.208C1287.91 922.133 1288.08 923.127 1288.05 924.125V932.356C1288.05 933.033 1288.05 933.762 1288.05 934.543C1288.05 935.325 1288.05 935.95 1288.05 936.419H1285.56C1285.56 936.002 1285.56 935.481 1285.56 934.96C1285.53 934.457 1285.53 933.953 1285.56 933.449V933.449C1284.95 934.577 1284.03 935.501 1282.9 936.106C1281.73 936.656 1280.45 936.924 1279.16 936.888C1278.36 936.893 1277.58 936.788 1276.82 936.575C1276.07 936.382 1275.38 936.026 1274.79 935.533C1274.2 935.09 1273.72 934.521 1273.38 933.866C1273.01 933.16 1272.84 932.37 1272.86 931.574C1272.79 930.293 1273.2 929.031 1274.01 928.032C1274.8 927.187 1275.78 926.544 1276.87 926.157C1278.08 925.732 1279.34 925.469 1280.61 925.375H1284.2L1285.5 925.167ZM1284.15 927.303H1281.71C1280.76 927.408 1279.82 927.565 1278.9 927.771C1278.06 928.011 1277.28 928.419 1276.61 928.97C1276.3 929.228 1276.05 929.556 1275.89 929.927C1275.72 930.297 1275.65 930.701 1275.67 931.105C1275.65 931.633 1275.77 932.157 1276.03 932.616C1276.28 933.05 1276.62 933.424 1277.02 933.71C1277.45 933.984 1277.93 934.179 1278.43 934.283C1278.93 934.337 1279.43 934.337 1279.94 934.283C1280.78 934.303 1281.61 934.143 1282.38 933.814C1283.03 933.52 1283.62 933.094 1284.1 932.564C1284.58 932.027 1284.94 931.385 1285.14 930.689C1285.39 929.952 1285.52 929.176 1285.5 928.396V927.146L1284.15 927.303Z" fill="#0094AA"/>
<path d="M1313.39 920.427H1309.07V936.367H1306.47V920.427H1302.62V918.083H1306.47V912.874C1306.38 911.938 1306.48 910.992 1306.76 910.096C1307.05 909.2 1307.52 908.373 1308.13 907.665C1309.37 906.585 1310.97 906.025 1312.61 906.102H1313.7H1314.79L1314.32 908.446H1313.39H1312.35C1311.76 908.445 1311.17 908.57 1310.63 908.811C1310.22 909.044 1309.88 909.386 1309.64 909.8C1309.38 910.264 1309.22 910.779 1309.17 911.311C1309.12 911.918 1309.12 912.528 1309.17 913.134V917.822H1313.49L1313.39 920.427Z" fill="#0094AA"/>
<path d="M1316.67 923.812C1316.67 922.979 1316.67 922.197 1316.67 921.364C1316.67 920.53 1316.67 919.436 1316.67 918.082H1319.21V921.52C1319.38 920.989 1319.65 920.494 1320 920.062C1320.33 919.6 1320.73 919.195 1321.19 918.863C1321.71 918.476 1322.29 918.177 1322.91 917.978C1323.6 917.742 1324.32 917.619 1325.04 917.613C1325.69 917.612 1326.34 917.7 1326.97 917.874L1326.45 920.426C1325.97 920.326 1325.47 920.326 1324.99 920.426C1324.1 920.382 1323.22 920.58 1322.44 920.999C1321.75 921.333 1321.15 921.813 1320.67 922.406C1320.23 922.995 1319.88 923.644 1319.63 924.333C1319.43 924.956 1319.32 925.606 1319.32 926.26V936.679H1316.72L1316.67 923.812Z" fill="#0094AA"/>
<path d="M1347.1 927.146C1347.13 928.451 1346.88 929.748 1346.37 930.949C1345.94 932.147 1345.25 933.236 1344.35 934.136C1343.45 935.037 1342.37 935.727 1341.17 936.158C1338.66 937.13 1335.88 937.13 1333.37 936.158C1332.17 935.727 1331.08 935.037 1330.18 934.136C1329.28 933.236 1328.59 932.147 1328.16 930.949C1327.65 929.748 1327.4 928.451 1327.43 927.146C1327.41 925.824 1327.65 924.511 1328.16 923.292C1328.62 922.164 1329.29 921.137 1330.14 920.27C1331.02 919.401 1332.06 918.711 1333.21 918.239C1335.72 917.267 1338.5 917.267 1341.01 918.239C1342.16 918.711 1343.2 919.401 1344.08 920.27C1344.93 921.137 1345.61 922.164 1346.06 923.292C1346.68 924.487 1347.03 925.802 1347.1 927.146V927.146ZM1344.29 927.146C1344.3 926.171 1344.14 925.202 1343.82 924.281C1343.53 923.421 1343.05 922.638 1342.42 921.989C1341.82 921.327 1341.1 920.794 1340.28 920.426C1338.44 919.665 1336.36 919.665 1334.51 920.426C1333.7 920.794 1332.97 921.327 1332.38 921.989C1331.78 922.654 1331.32 923.434 1331.02 924.281C1330.71 925.202 1330.55 926.171 1330.56 927.146C1330.55 928.121 1330.71 929.089 1331.02 930.011C1331.33 930.853 1331.79 931.63 1332.38 932.303C1332.98 932.95 1333.7 933.464 1334.51 933.814C1335.43 934.224 1336.42 934.42 1337.42 934.387C1338.41 934.414 1339.39 934.218 1340.28 933.814C1341.09 933.464 1341.82 932.95 1342.42 932.303C1343.04 931.646 1343.52 930.865 1343.82 930.011C1344.14 929.089 1344.3 928.121 1344.29 927.146V927.146Z" fill="#0094AA"/>
<path d="M1351.78 921.937C1351.78 921.26 1351.78 920.583 1351.78 919.905V917.874H1354.59V920.687C1355.2 919.633 1356.1 918.781 1357.19 918.239C1358.21 917.719 1359.33 917.434 1360.47 917.405H1362.08C1362.64 917.526 1363.18 917.718 1363.7 917.978C1364.24 918.28 1364.73 918.667 1365.15 919.124C1365.65 919.693 1366.03 920.346 1366.3 921.051C1366.82 919.893 1367.69 918.927 1368.79 918.29C1370.14 917.479 1371.71 917.123 1373.28 917.273C1374.84 917.423 1376.31 918.072 1377.48 919.124C1378.67 920.591 1379.26 922.45 1379.15 924.333V935.898H1376.6V925.479C1376.7 923.989 1376.36 922.501 1375.61 921.208C1375.19 920.671 1374.64 920.251 1374.01 919.986C1373.38 919.722 1372.7 919.622 1372.02 919.697C1371.17 919.685 1370.33 919.882 1369.57 920.27C1368.95 920.649 1368.41 921.165 1368.01 921.781C1367.58 922.428 1367.28 923.154 1367.13 923.917C1366.93 924.735 1366.85 925.576 1366.87 926.417V936.106H1364.27V925.688C1364.37 924.197 1364.03 922.71 1363.28 921.416C1362.86 920.875 1362.31 920.452 1361.68 920.188C1361.05 919.923 1360.37 919.826 1359.69 919.905H1358.6C1357.96 920.052 1357.37 920.356 1356.88 920.791C1356.19 921.349 1355.63 922.063 1355.27 922.875C1354.71 924.097 1354.46 925.439 1354.54 926.781V936.158H1351.94L1351.78 921.937Z" fill="#0094AA"/>
<path d="M1404.95 908.706H1410.15L1422.17 936.367H1415.3L1412.91 930.533H1402.19L1399.91 936.367H1393.19L1404.95 908.706ZM1407.29 916.78L1403.96 925.376H1410.67L1407.29 916.78Z" fill="#0094AA"/>
<path d="M1421.76 924.333H1441.26V929.021H1421.76V924.333Z" fill="#0094AA"/>
<path d="M1442.83 930.741L1456.82 914.123H1443.35V908.914H1464.16V914.123L1450.42 930.741H1464.62V936.367H1442.77L1442.83 930.741Z" fill="#0094AA"/>
<path d="M1519.2 1208.44C1464.05 1208.44 1461.97 1219.85 1494.49 1271.27C1527 1322.68 1536.1 1282.67 1547.71 1256C1559.31 1229.33 1549.63 1208.44 1519.2 1208.44Z" fill="#DA6022"/>
<path d="M989.33 513.64V516.974C986.624 517.391 980.954 516.974 974.867 517.391L969.664 517.703C969.664 521.454 969.664 526.09 969.664 528.122C969.664 530.153 969.664 533.331 969.976 538.54C969.976 548.958 969.976 554.949 969.976 565.732C969.976 570.681 970.237 574.327 970.237 575.265C970.237 577.349 970.965 578.703 969.144 579.276C966.285 579.842 963.367 580.052 960.456 579.901C958.739 579.901 957.439 577.87 957.335 575.838C957.23 573.806 957.335 569.899 956.918 566.461C956.502 563.023 957.335 546.51 957.335 543.28C957.335 540.051 956.814 528.33 956.502 518.641C954.421 518.641 952.496 518.641 950.78 518.641H938.242C937.045 515.672 937.149 509.212 939.178 508.222C947.138 507.91 952.808 508.222 955.93 507.806C960.044 507.4 964.178 507.226 968.312 507.285C974.111 507.488 979.918 507.279 985.688 506.66C986.441 506.558 987.207 506.648 987.916 506.921C988.626 507.194 989.255 507.642 989.746 508.222C989.954 509.108 989.33 510.931 989.33 513.64Z" fill="#00323D"/>
<path d="M1043.95 556.512C1043.33 565.524 1043.95 574.431 1043.95 575.629C1043.95 580.109 1039.48 580.37 1035.37 580.37L1032.14 579.901C1031.83 576.15 1031.73 558.074 1031.73 554.793C1031.73 546.041 1032.46 535.987 1023.56 535.779C1015.96 535.779 1011.96 542.707 1009.2 548.958C1009.2 555.209 1009.2 559.846 1009.2 560.887C1009.51 567.034 1009.2 573.91 1009.2 574.848C1009.2 580.37 1002.13 578.859 997.913 578.859C996.092 578.859 996.664 577.036 996.56 575.161C996.456 573.285 996.56 569.691 996.56 566.565C996.56 563.44 996.82 547.031 996.82 544.01C996.82 540.988 996.352 515.359 996.56 508.014C999.48 507.512 1002.44 507.303 1005.4 507.389C1007.64 507.389 1009.36 507.91 1009.77 509.629C1009.36 514.838 1009.15 525.256 1009.05 535.414C1012.94 530.138 1018.68 526.529 1025.12 525.308C1029.65 524.788 1038.34 526.611 1040.47 530.257C1042.67 533.054 1043.91 536.49 1044.01 540.051C1044.06 544.01 1044.27 551.563 1043.95 556.512Z" fill="#00323D"/>
<path d="M1062.79 556.824C1062.79 557.345 1062.79 557.866 1062.79 558.439C1062.74 561.595 1063.91 564.649 1066.05 566.966C1068.19 569.284 1071.14 570.689 1074.28 570.889C1076.75 570.606 1079.13 569.811 1081.27 568.555C1083.41 567.299 1085.27 565.61 1086.72 563.596C1087.25 562.994 1087.99 562.612 1088.79 562.525C1089.59 562.438 1090.39 562.653 1091.04 563.127C1093.38 565.315 1095.98 567.138 1094.26 569.691C1092.54 572.93 1089.94 575.622 1086.77 577.463C1083.6 579.304 1079.98 580.22 1076.31 580.109C1065.91 580.109 1058 577.661 1054.36 569.951C1051.98 564.853 1050.65 559.324 1050.46 553.699C1050 549.013 1050.71 544.286 1052.54 539.946C1054.66 536.122 1057.65 532.848 1061.26 530.388C1064.88 527.928 1069.02 526.349 1073.35 525.777C1085 525.777 1091.76 529.319 1095.77 540.467C1096.73 542.783 1097.18 545.274 1097.11 547.778C1097.04 550.283 1096.44 552.744 1095.35 555.001L1087.81 555.522C1079.54 556.863 1071.15 557.3 1062.79 556.824V556.824ZM1062.79 548.229C1069.6 548.229 1082.66 548.229 1085.05 548.229C1087.45 548.229 1087.08 547.448 1086.61 544.322C1086.47 541.305 1085.16 538.461 1082.97 536.384C1080.78 534.307 1077.87 533.157 1074.86 533.174C1070.49 533.07 1064.04 537.602 1062.79 548.229V548.229Z" fill="#00323D"/>
<path d="M1177.24 565.837C1175.06 572.609 1168.29 580.11 1152.63 580.11C1143.84 580.11 1131.3 578.547 1127.25 567.972C1123.34 558.861 1121.65 548.954 1122.3 539.061C1122.3 534.685 1122.93 531.456 1123.03 529.424C1123.14 527.393 1123.76 524.215 1124.23 520.933C1125.94 510.202 1135.67 501.815 1150.24 501.815C1166.68 501.815 1174.9 508.9 1176.25 516.297C1177.24 519.735 1178.54 526.715 1177.55 527.497C1175.52 528.499 1173.26 528.931 1171 528.747L1166.21 528.122C1166.33 525.59 1166.03 523.056 1165.33 520.621C1163.61 515.672 1160.12 511.765 1150.4 511.765C1142.8 511.765 1137.96 516.714 1136.77 525.569C1136.25 531.247 1135.93 535.415 1135.52 540.676C1134.99 547.318 1135.53 554.002 1137.13 560.471C1137.98 563.452 1139.89 566.022 1142.49 567.699C1145.09 569.377 1148.22 570.048 1151.28 569.587C1159.45 569.587 1165.43 565.732 1166.42 558.335V551.094C1160.85 551.094 1152.58 551.355 1149.77 551.094V544.635C1149.77 543.385 1149.77 541.874 1152.48 542.082C1157.26 542.395 1167.15 542.395 1170.69 542.708C1172.87 542.708 1178.23 542.708 1178.44 546.51C1179.09 552.975 1178.68 559.502 1177.24 565.837V565.837Z" fill="#00323D"/>
<path d="M1223.02 526.402V533.695C1223.02 538.904 1220.53 539.738 1219.8 539.634C1216.96 538.806 1214.05 538.265 1211.11 538.019C1206.48 538.019 1203.15 542.186 1200.7 546.822C1200.39 553.386 1200.7 557.658 1200.7 560.471C1201.02 566.722 1200.7 573.806 1200.7 574.744C1200.7 580.474 1193.73 578.859 1189.52 578.859C1187.7 578.859 1188.32 576.932 1188.32 575.056C1188.32 573.181 1188.32 569.483 1188.32 566.253C1188.32 563.023 1188.69 547.812 1188.69 544.791C1188.69 541.77 1188.22 535.206 1188.43 527.705C1191.35 527.286 1194.31 527.129 1197.27 527.236C1198.76 529.275 1199.88 531.57 1200.55 534.008C1202.13 531.715 1204.16 529.764 1206.51 528.27C1208.86 526.775 1211.48 525.768 1214.23 525.308C1217.2 525.064 1220.2 525.436 1223.02 526.402V526.402Z" fill="#00323D"/>
<path d="M1236.55 556.824C1236.55 557.345 1236.55 557.866 1236.55 558.439C1236.51 561.592 1237.69 564.638 1239.82 566.953C1241.96 569.268 1244.9 570.676 1248.05 570.889C1250.51 570.612 1252.89 569.82 1255.04 568.564C1257.18 567.307 1259.03 565.615 1260.48 563.596C1261.02 562.99 1261.77 562.606 1262.57 562.519C1263.38 562.433 1264.19 562.649 1264.85 563.127C1267.14 565.315 1269.79 567.138 1268.07 569.691C1266.34 572.93 1263.73 575.621 1260.55 577.461C1257.37 579.301 1253.75 580.218 1250.07 580.109C1239.67 580.109 1231.81 577.661 1228.17 569.951C1225.79 564.849 1224.45 559.325 1224.22 553.699C1223.81 549.009 1224.54 544.291 1226.35 539.946C1228.47 536.117 1231.45 532.839 1235.07 530.378C1238.68 527.916 1242.83 526.341 1247.16 525.777C1258.76 525.777 1265.53 529.319 1269.58 540.467C1270.54 542.783 1271 545.274 1270.92 547.778C1270.85 550.283 1270.25 552.744 1269.17 555.001L1261.62 555.522C1253.34 556.865 1244.93 557.301 1236.55 556.824V556.824ZM1236.55 548.229C1243.42 548.229 1256.47 548.229 1258.87 548.229C1261.26 548.229 1260.9 547.448 1260.38 544.322C1260.25 541.305 1258.96 538.454 1256.78 536.373C1254.59 534.292 1251.69 533.145 1248.67 533.174C1244.35 533.07 1237.9 537.602 1236.65 548.229H1236.55Z" fill="#00323D"/>
<path d="M1323.59 561.2C1323.9 567.347 1323.59 574.119 1323.59 574.952C1323.59 579.38 1319.37 579.068 1315.11 578.859C1314.33 578.859 1313.08 576.567 1312.19 573.65C1307.83 577.624 1302.12 579.801 1296.22 579.745C1288.47 579.745 1282.12 578.442 1278.48 573.181C1276.9 570.563 1276.12 567.538 1276.24 564.482C1276.07 559.858 1277.56 555.327 1280.46 551.719C1282.58 549.164 1285.32 547.193 1288.41 545.99C1291.51 544.787 1294.86 544.392 1298.15 544.843C1302.94 544.694 1307.62 546.39 1311.2 549.583C1311.2 547.187 1311.2 545.051 1311.2 543.749C1311.13 541.128 1310.07 538.632 1308.24 536.759C1306.4 534.886 1303.93 533.773 1301.32 533.643C1290.91 533.643 1286.8 536.873 1285.09 538.852C1281.13 537.602 1280.35 536.508 1279.52 534.164C1280.19 532.457 1281.21 530.915 1282.54 529.647C1283.86 528.378 1285.44 527.413 1287.17 526.819C1291.39 525.012 1295.95 524.108 1300.54 524.162C1311.72 524.162 1318.07 528.903 1319.79 531.976C1325.41 542.395 1323.38 558.96 1323.59 561.2ZM1311.1 564.013V558.804C1310.04 556.736 1308.45 554.989 1306.5 553.743C1304.54 552.498 1302.28 551.799 1299.97 551.719C1298.31 551.557 1296.63 551.766 1295.06 552.329C1293.49 552.892 1292.07 553.796 1290.89 554.977C1289.71 556.157 1288.81 557.584 1288.25 559.156C1287.68 560.727 1287.48 562.403 1287.64 564.065C1287.64 569.951 1292.84 571.462 1299.86 571.462C1302.26 571.473 1304.61 570.771 1306.61 569.445C1308.61 568.119 1310.17 566.229 1311.1 564.013Z" fill="#00323D"/>
<path d="M1366.4 536.925L1352.04 536.456C1352.04 541.665 1352.46 546.875 1352.04 549.01C1351.78 552.344 1351.78 561.825 1351.78 563.857C1351.78 569.639 1354.28 570.629 1356.1 570.837C1358.81 571.15 1360.05 569.535 1361.67 568.493C1362.38 568.3 1363.14 568.393 1363.78 568.754C1364.42 569.114 1364.89 569.713 1365.1 570.42C1366.61 572.66 1367.03 575.265 1365.78 576.515C1361.85 579.558 1357 581.158 1352.04 581.047C1346.84 581.047 1339.56 578.807 1339.45 565.419L1339.14 555.626C1339.14 554.688 1338.83 547.812 1339.14 541.77C1339.14 540.936 1339.14 539.425 1339.14 537.238C1336.38 537.639 1333.56 537.461 1330.87 536.717C1330.37 536.226 1330.02 535.605 1329.85 534.923C1329.68 534.242 1329.71 533.528 1329.93 532.862L1330.76 527.913H1339.14L1338.83 519.526C1338.83 516.87 1338.41 513.379 1339.71 511.921C1341.44 510.823 1343.38 510.103 1345.41 509.806C1347.43 509.51 1349.5 509.645 1351.47 510.202C1351.73 518.12 1351.47 523.85 1351.47 527.184V527.809C1356.45 527.636 1361.44 527.776 1366.4 528.226C1367.29 528.799 1367.03 531.872 1366.71 534.581L1366.4 536.925Z" fill="#00323D"/>
<path d="M969.456 752.794C961.08 754.878 949.843 754.878 946.409 748.887C942.904 738.405 940.02 727.725 937.773 716.903C937.781 716.522 937.691 716.145 937.513 715.809C925.592 717.596 913.565 718.588 901.512 718.778C895.477 719.039 876.905 720.341 861.193 721.122C859.112 727.425 856.979 733.989 855.159 738.677C850.476 751.805 846.523 751.804 838.927 751.284C834.545 751.044 830.184 750.522 825.869 749.721C821.135 748.939 817.493 748.679 820.667 738.417C829.043 712.371 846.679 662.415 849.176 654.549C851.569 645.901 868.061 601.832 871.702 592.038C875.136 583.912 877.477 573.441 879.298 568.18C879.797 565.612 881.119 563.278 883.062 561.529C885.005 559.781 887.464 558.714 890.067 558.491C904.166 558.491 917.276 556.407 919.877 567.92C921.438 573.962 935.848 615.115 944.224 640.275C954.161 670.958 960.196 688.773 960.976 692.367C963.109 699.66 971.381 733.781 973.566 742.688C975.491 748.887 974.971 751.492 969.456 752.794ZM930.178 690.909C929.711 689.731 929.363 688.509 929.137 687.263C926.016 674.656 922.634 663.404 922.062 660.279C921.281 655.07 908.223 614.646 900.628 590.528C893.553 614.907 883.096 648.975 878.101 666.269C874.98 677.313 871.286 688.565 868.685 696.431C880.963 696.431 893.032 695.389 896.674 695.128C902.709 694.347 917.12 692.732 930.178 690.909Z" fill="#00323D"/>
<path d="M1110.81 704.818C1110.81 713.204 1111.9 729.718 1111.59 749.148C1103.98 750.31 1096.28 750.746 1088.59 750.45C1084 743.779 1080.7 736.305 1078.86 728.415C1074.15 735.48 1068.05 741.513 1060.95 746.151C1053.84 750.789 1045.86 753.935 1037.5 755.399C1025.75 756.753 1003.22 751.753 997.705 742.584C990.942 731.28 989.069 728.155 988.549 716.903C988.549 706.901 987.769 687.263 988.549 674.396C990.11 650.85 989.33 628.034 989.33 624.596C989.33 613.344 1000.62 612.562 1011.34 612.562L1019.71 613.865C1020.49 623.293 1020.75 670.489 1020.75 678.876C1020.75 701.692 1019.97 726.852 1041.98 728.155C1061.59 729.197 1072.36 709.037 1079.44 688.044C1079.44 677.313 1079.44 669.707 1079.18 664.186C1078.08 647.933 1078.86 629.336 1078.86 626.992C1078.86 612.302 1097.23 616.574 1107.94 616.574C1113.15 616.574 1111.33 621.783 1111.33 626.263C1111.33 630.743 1111.07 640.953 1111.9 649.079C1112.42 658.143 1110.81 696.691 1110.81 704.818Z" fill="#00323D"/>
<path d="M1130.68 723.154C1127.3 712.162 1133.33 709.037 1146.91 703.776C1152.11 704.817 1152.42 706.38 1155.03 711.121C1157.57 716.876 1161.77 721.742 1167.09 725.1C1172.41 728.458 1178.6 730.156 1184.89 729.978C1193 729.978 1211.58 724.769 1212.15 712.423C1212.67 701.171 1202.94 693.045 1181.77 688.825C1165.01 685.179 1151.38 678.094 1145.09 671.01C1141.63 667.038 1139.12 662.325 1137.76 657.232C1136.4 652.14 1136.22 646.802 1137.23 641.63C1139.11 624.335 1160.8 609.385 1189.26 609.385C1199.83 609.604 1210.28 611.649 1220.16 615.427C1225.03 616.799 1229.45 619.457 1232.95 623.122C1236.44 626.788 1238.89 631.327 1240.03 636.264C1240.68 640.947 1240.68 645.698 1240.03 650.381L1224.43 652.777C1216.83 652.777 1214.02 647.256 1214.02 640.432C1214.02 635.222 1201.69 627.877 1185.98 629.44C1174.74 631.263 1166.89 639.859 1166.63 645.068C1166.63 654.236 1182.23 662.623 1194.36 665.227C1222.4 671.791 1227.34 676.531 1236.29 688.825C1239.11 692.961 1241.05 697.634 1241.99 702.555C1242.93 707.475 1242.85 712.537 1241.75 717.424C1240.46 723.176 1237.81 728.538 1234.04 733.067C1230.27 737.595 1225.48 741.161 1220.06 743.47C1208.77 748.679 1198.05 751.596 1176.82 751.596C1161.06 751.752 1137.23 744.824 1130.68 723.154Z" fill="#00323D"/>
<path d="M1253.77 723.154C1250.33 712.162 1256.37 709.037 1269.95 703.776C1275.15 704.817 1275.46 706.38 1278.06 711.121C1280.61 716.876 1284.81 721.742 1290.13 725.1C1295.45 728.458 1301.64 730.156 1307.93 729.978C1316.04 729.978 1334.61 724.769 1335.19 712.423C1335.71 701.171 1325.98 693.045 1304.8 688.825C1288.05 685.179 1274.42 678.094 1268.39 671.01C1264.93 667.038 1262.42 662.325 1261.06 657.232C1259.69 652.14 1259.51 646.802 1260.53 641.63C1262.35 624.335 1284.1 609.385 1312.56 609.385C1323.13 609.604 1333.58 611.649 1343.46 615.427C1348.33 616.799 1352.75 619.457 1356.24 623.122C1359.74 626.788 1362.19 631.327 1363.33 636.264C1363.98 640.947 1363.98 645.698 1363.33 650.381L1347.72 652.777C1340.13 652.777 1337.32 647.256 1337.32 640.432C1337.32 635.222 1324.99 627.877 1309.28 629.44C1298.04 631.263 1290.19 639.859 1289.93 645.068C1289.93 654.236 1305.53 662.623 1317.65 665.227C1345.7 671.791 1350.69 676.531 1359.59 688.825C1362.44 692.947 1364.4 697.62 1365.34 702.546C1366.28 707.471 1366.18 712.539 1365.05 717.424C1363.75 723.176 1361.11 728.538 1357.34 733.067C1353.57 737.595 1348.77 741.161 1343.35 743.47C1332.06 748.679 1321.35 751.596 1300.12 751.596C1284.1 751.752 1260.48 744.824 1253.77 723.154Z" fill="#00323D"/>
<path d="M1389.86 593.757C1388.28 591.512 1387.17 588.971 1386.59 586.287C1386.01 583.603 1385.97 580.829 1386.48 578.13C1387.24 573.554 1389.61 569.4 1393.16 566.419C1396.71 563.438 1401.2 561.827 1405.84 561.877C1410.57 562.101 1415.14 563.733 1418.95 566.565C1421 568.161 1422.62 570.246 1423.67 572.629C1424.71 575.013 1425.15 577.62 1424.93 580.213C1424.78 585.165 1422.69 589.86 1419.12 593.289C1415.55 596.718 1410.78 598.607 1405.84 598.55C1400.09 599.118 1394.35 597.396 1389.86 593.757V593.757ZM1388.82 739.615C1388.82 734.927 1389.08 725.498 1388.56 717.372C1387.78 708.464 1389.6 666.791 1389.6 658.925C1389.6 651.059 1388.3 640.536 1388.82 621.418C1407.4 617.199 1418.63 619.074 1420.51 622.46C1422.38 625.846 1422.07 634.546 1422.07 641.317C1421.29 668.874 1421.55 696.639 1421.55 702.682C1422.33 718.674 1421.81 736.49 1421.81 742.011C1421.81 752.43 1403.23 749.356 1392.21 749.356C1387.52 749.669 1388.82 744.824 1388.82 739.928V739.615Z" fill="#00323D"/>
<path d="M1475.44 692.732C1475.44 694.034 1475.7 695.337 1475.7 696.899C1476.74 714.975 1489.59 729.144 1505.57 729.144C1515.24 729.144 1527.83 722.32 1537.77 710.287C1539.15 708.713 1541.06 707.708 1543.14 707.468C1545.21 707.227 1547.31 707.768 1549.01 708.985C1555.04 714.715 1561.86 719.403 1557.38 726.019C1545.62 743.574 1533.35 753.263 1510.82 753.263C1484.08 753.263 1463.43 746.96 1454.01 727.217C1447.77 713.986 1444.23 699.641 1443.61 685.022C1442.44 672.854 1444.34 660.587 1449.12 649.339C1459.84 629.701 1484.44 612.875 1503.07 612.875C1533.19 612.875 1550.72 622.043 1561.18 650.85C1565.6 662.935 1566.38 680.751 1560.14 688.617L1540.47 689.919C1518.97 693.234 1497.16 694.177 1475.44 692.732V692.732ZM1475.7 670.437C1493.55 669.916 1527.31 670.176 1533.61 670.176C1538.03 670.176 1538.81 668.093 1537.51 659.758C1535.95 647.152 1527.83 630.899 1507.13 630.899C1495.63 630.899 1478.98 642.672 1475.7 670.228V670.437Z" fill="#00323D"/>
<path d="M930.698 800.459C921.229 800.459 915.09 808.741 913.686 819.108C913.267 823.543 913.267 828.008 913.686 832.443C914.414 843.643 920.761 852.394 930.229 852.394C933.771 852.249 937.221 851.22 940.264 849.4C943.308 847.581 945.849 845.029 947.658 841.976C947.926 841.404 948.318 840.899 948.806 840.497C949.293 840.095 949.863 839.806 950.475 839.652C951.087 839.497 951.726 839.481 952.346 839.604C952.965 839.726 953.549 839.985 954.057 840.361C957.75 842.549 962.328 845.101 959.519 849.946C957.269 854.878 953.578 859.011 948.935 861.801C944.291 864.591 938.912 865.906 933.507 865.574C918.42 865.574 906.87 862.031 901.564 850.884C898.045 843.32 896.132 835.107 895.945 826.765C895.401 820.227 896.362 813.651 898.755 807.543C901.62 801.735 905.979 796.797 911.383 793.235C916.787 789.674 923.041 787.618 929.501 787.279C946.357 787.279 956.71 791.134 962.172 807.231C962.493 808.091 962.595 809.018 962.467 809.928C962.34 810.837 961.989 811.701 961.444 812.44C957.438 815.409 949.739 817.649 949.01 814.055C947.942 810.049 945.55 806.525 942.225 804.055C938.899 801.586 934.836 800.318 930.698 800.459V800.459Z" fill="#00323D"/>
<path d="M976.791 852.394C972.476 844.565 970.003 835.853 969.559 826.921C969.383 819.859 970.9 812.857 973.981 806.501C976.961 800.782 981.443 795.984 986.943 792.625C992.443 789.265 998.753 787.471 1005.2 787.436C1022.78 787.436 1031.62 789.624 1040.05 804.313C1044.29 811.495 1046.25 819.797 1045.67 828.119C1045.2 835.188 1043.44 842.109 1040.47 848.54C1037.6 853.954 1033.26 858.444 1027.95 861.486C1022.63 864.529 1016.57 866.001 1010.45 865.73C993.335 865.73 982.253 862.448 976.791 852.394ZM1026.73 815.409C1026.05 810.949 1023.71 806.912 1020.18 804.11C1016.65 801.308 1012.19 799.948 1007.69 800.302C1002.71 800.209 997.877 802.029 994.19 805.391C990.504 808.753 988.243 813.4 987.872 818.378C987.314 823.346 987.314 828.361 987.872 833.329C987.85 835.878 988.342 838.407 989.321 840.761C990.299 843.115 991.743 845.247 993.566 847.028C995.388 848.809 997.551 850.202 999.926 851.125C1002.3 852.047 1004.84 852.479 1007.38 852.394C1011.72 852.694 1016.02 851.423 1019.49 848.812C1022.97 846.201 1025.39 842.425 1026.32 838.173C1027.78 830.668 1027.92 822.963 1026.73 815.409Z" fill="#00323D"/>
<path d="M1058.94 776.601C1057.19 774.063 1056.5 770.942 1057.01 767.902C1057.45 765.313 1058.79 762.965 1060.81 761.283C1062.82 759.602 1065.37 758.697 1067.99 758.733C1070.66 758.856 1073.24 759.781 1075.38 761.39C1076.55 762.277 1077.48 763.452 1078.08 764.802C1078.67 766.152 1078.9 767.632 1078.76 769.1C1078.76 770.499 1078.48 771.884 1077.93 773.173C1077.39 774.461 1076.59 775.626 1075.58 776.599C1074.58 777.571 1073.39 778.331 1072.08 778.832C1070.78 779.334 1069.39 779.567 1067.99 779.518C1064.71 779.779 1061.45 778.731 1058.94 776.601V776.601ZM1058.37 859.063C1058.37 856.406 1058.37 851.041 1058.37 846.456C1058.37 841.872 1058.99 817.91 1058.99 813.482C1058.99 809.054 1058.21 803.064 1058.52 792.281C1068.93 789.936 1075.38 790.978 1076.42 792.906C1077.35 796.295 1077.65 799.827 1077.3 803.324C1076.83 818.952 1076.99 834.579 1076.99 837.965C1077.46 847.029 1076.99 857.083 1076.99 860.157C1076.99 866.095 1066.59 864.324 1060.29 864.324C1057.59 864.637 1058.37 861.876 1058.37 859.063Z" fill="#00323D"/>
<path d="M1162.57 831.818C1161.69 844.998 1162.26 856.562 1162.26 858.333C1162.26 864.845 1155.76 865.261 1149.72 865.261L1144.99 864.532C1144.52 859.062 1144.36 834.058 1144.36 829.318C1144.36 816.451 1144.99 801.344 1131.98 801.344C1122.2 801.344 1115.54 810.669 1111.59 819.108C1111.26 825.268 1111.26 831.44 1111.59 837.6C1112 846.769 1111.59 857.135 1111.59 858.437C1111.59 866.824 1101.18 864.48 1095.15 864.48C1092.34 864.48 1093.38 861.667 1093.22 858.854C1093.07 856.041 1093.22 850.728 1092.96 845.987C1092.7 841.247 1093.53 819.056 1093.53 814.732C1093.53 810.408 1092.81 800.667 1093.12 789.676C1097.42 789.024 1101.78 788.78 1106.12 788.946C1108.52 792.524 1110.28 796.489 1111.33 800.667C1116.83 793.085 1125.02 787.889 1134.22 786.133C1140.88 785.404 1154.19 788.061 1157.26 793.374C1160.49 797.486 1162.31 802.525 1162.47 807.752C1162.73 813.482 1162.99 824.577 1162.57 831.818Z" fill="#00323D"/>
<path d="M1274.01 831.818C1273.12 844.997 1273.69 857.864 1273.69 859.791C1273.69 866.303 1267.19 866.772 1261.16 866.772L1256.42 865.99C1255.95 860.521 1255.8 834.058 1255.8 829.526C1255.8 816.659 1256.84 801.969 1243.83 801.709C1232.75 801.709 1226.87 811.762 1223.02 820.931C1223.02 830.099 1223.02 836.923 1223.02 838.382C1223.44 847.446 1223.02 857.499 1223.02 858.802C1223.02 866.98 1212.62 864.74 1206.48 864.74C1203.82 864.74 1204.71 862.083 1204.55 859.271C1204.4 856.458 1204.87 851.248 1204.55 846.664C1204.24 842.08 1204.97 818.118 1204.97 813.69C1204.97 809.262 1204.24 772.016 1204.55 760.973C1208.85 760.267 1213.21 759.971 1217.56 760.087C1220.78 760.4 1223.28 760.816 1223.91 763.369C1223.28 771.339 1223.02 786.446 1222.87 801.084C1228.57 793.372 1236.97 788.091 1246.38 786.289C1252.99 785.56 1265.73 788.217 1268.8 793.53C1272.03 797.642 1273.85 802.681 1274.01 807.908C1274.16 813.482 1274.42 824.577 1274.01 831.818Z" fill="#00323D"/>
<path d="M1356.31 839.215C1356.31 843.955 1356.93 853.28 1356.78 864.219C1352.48 864.913 1348.12 865.175 1343.77 865.001C1341.16 861.246 1339.3 857.017 1338.31 852.551C1335.63 856.529 1332.18 859.929 1328.17 862.551C1324.16 865.172 1319.66 866.962 1314.95 867.814C1308.29 868.543 1295.54 865.73 1292.47 860.521C1289.21 856.388 1287.39 851.304 1287.27 846.039C1287.27 840.413 1286.86 829.318 1287.27 822.077C1288.16 808.741 1287.74 796.031 1287.74 793.947C1287.74 787.592 1294.09 787.123 1300.17 787.123L1304.86 787.852C1305.32 793.062 1305.48 819.837 1305.48 824.577C1305.48 837.444 1305.01 851.665 1317.45 852.394C1328.53 852.967 1334.61 841.611 1338.57 829.734C1338.57 823.692 1338.57 819.316 1338.57 816.295C1338 807.126 1338.57 796.604 1338.57 795.458C1338.57 787.175 1348.97 789.571 1354.96 789.571C1357.76 789.571 1356.88 792.384 1356.88 795.041C1356.88 797.698 1356.88 803.324 1357.19 807.908C1357.5 812.492 1356.31 834.631 1356.31 839.215Z" fill="#00323D"/>
<path d="M1440.28 831.818C1439.39 844.998 1439.96 856.562 1439.96 858.333C1439.96 864.845 1433.46 865.261 1427.43 865.261L1422.69 864.532C1422.22 859.062 1422.07 834.058 1422.07 829.318C1422.07 816.451 1422.69 801.344 1409.69 801.344C1399.9 801.344 1393.25 810.669 1389.29 819.108C1388.97 825.268 1388.97 831.44 1389.29 837.6C1389.71 846.769 1389.29 857.135 1389.29 858.437C1389.29 866.824 1378.89 864.48 1372.85 864.48C1370.04 864.48 1371.08 861.667 1370.93 858.854C1370.77 856.041 1370.93 850.728 1370.67 845.987C1370.41 841.247 1371.24 819.056 1371.24 814.732C1371.24 810.408 1370.51 800.667 1370.77 789.676C1375.07 789.028 1379.43 788.784 1383.78 788.946C1386.19 792.515 1387.95 796.483 1388.98 800.667C1394.49 793.085 1402.67 787.889 1411.87 786.133C1418.53 785.404 1431.85 788.061 1434.92 793.374C1438.14 797.486 1439.97 802.525 1440.12 807.752C1440.43 813.482 1440.69 824.577 1440.28 831.818Z" fill="#00323D"/>
<path d="M1503.95 803.116L1483.14 802.647C1483.4 810.044 1483.72 818.275 1483.4 821.035C1482.99 825.932 1482.99 839.841 1482.99 842.758C1482.99 851.197 1486.68 852.707 1489.33 853.176C1493.34 853.645 1495.11 851.249 1497.45 849.79C1497.98 849.615 1498.53 849.55 1499.08 849.598C1499.63 849.646 1500.17 849.807 1500.66 850.071C1501.15 850.334 1501.57 850.695 1501.92 851.13C1502.26 851.566 1502.51 852.067 1502.65 852.603C1504.84 855.885 1505.46 859.688 1503.69 861.511C1497.96 865.999 1490.84 868.34 1483.56 868.127C1475.76 868.439 1465.25 864.897 1465.09 845.05L1464.67 830.724C1464.67 829.37 1464.21 819.316 1464.67 810.409C1464.67 809.263 1464.67 807.023 1464.93 803.741C1460.89 804.316 1456.76 804.068 1452.81 803.012C1452.1 802.285 1451.6 801.375 1451.37 800.382C1451.14 799.389 1451.19 798.352 1451.51 797.386L1452.66 790.145C1457.39 790.145 1461.4 790.145 1464.93 790.457L1464.52 778.164C1464.52 774.309 1463.95 769.152 1465.82 767.068C1467.69 764.984 1473.67 762.901 1482.99 764.568C1483.46 776.08 1482.99 784.519 1482.99 789.416V790.301C1490.29 790.063 1497.61 790.255 1504.89 790.874C1506.19 791.76 1505.77 796.083 1505.31 800.199L1503.95 803.116Z" fill="#00323D"/>
<path d="M1168.45 191.918C1168.32 191.918 1168.21 191.869 1168.12 191.781C1168.03 191.693 1167.98 191.574 1167.98 191.449C1167.98 191.325 1168.03 191.206 1168.12 191.118C1168.21 191.03 1168.32 190.981 1168.45 190.981L1204.4 177.645C1204.52 177.61 1204.65 177.623 1204.77 177.681C1204.89 177.739 1204.98 177.837 1205.02 177.958C1205.05 178.019 1205.06 178.085 1205.05 178.151C1205.05 178.217 1205.04 178.281 1205.01 178.34C1204.98 178.399 1204.93 178.451 1204.88 178.493C1204.83 178.535 1204.77 178.565 1204.71 178.583L1168.81 191.918H1168.45Z" fill="#F4F1EE"/>
<path d="M1169.75 198.587C1169.64 198.581 1169.54 198.543 1169.46 198.478C1169.37 198.412 1169.31 198.323 1169.28 198.222C1169.26 198.157 1169.25 198.088 1169.25 198.019C1169.26 197.95 1169.28 197.883 1169.32 197.823C1169.35 197.764 1169.4 197.712 1169.46 197.673C1169.51 197.634 1169.58 197.608 1169.65 197.597L1201.54 188.95C1201.67 188.917 1201.81 188.937 1201.92 189.005C1202.04 189.073 1202.12 189.184 1202.16 189.314C1202.18 189.444 1202.16 189.578 1202.09 189.691C1202.02 189.805 1201.92 189.893 1201.8 189.939L1169.91 198.587H1169.75Z" fill="#F4F1EE"/>
<path d="M1207 201.921H1169.07C1168.95 201.921 1168.83 201.872 1168.74 201.784C1168.65 201.696 1168.6 201.577 1168.6 201.453C1168.6 201.387 1168.6 201.32 1168.62 201.257C1168.64 201.194 1168.68 201.136 1168.72 201.087C1168.77 201.038 1168.82 200.998 1168.88 200.972C1168.94 200.945 1169.01 200.931 1169.07 200.932H1207C1207.07 200.932 1207.13 200.945 1207.2 200.971C1207.26 200.998 1207.32 201.036 1207.37 201.084C1207.42 201.133 1207.45 201.19 1207.48 201.253C1207.51 201.316 1207.52 201.384 1207.52 201.453C1207.51 201.582 1207.45 201.701 1207.35 201.788C1207.25 201.874 1207.13 201.922 1207 201.921Z" fill="#F4F1EE"/>
<path d="M998.069 299.437H997.757C987.821 292.978 986 278.183 985.948 277.558C985.932 277.428 985.966 277.296 986.044 277.19C986.121 277.084 986.235 277.011 986.364 276.985C986.499 276.983 986.631 277.029 986.736 277.115C986.841 277.201 986.912 277.321 986.936 277.454C986.936 277.454 988.757 292.405 998.329 298.604C998.41 298.698 998.454 298.818 998.454 298.942C998.454 299.066 998.41 299.186 998.329 299.281C998.26 299.358 998.17 299.412 998.069 299.437Z" fill="#1D1D1B"/>
<path d="M1010.76 213.954L986.364 235.468C986.364 235.468 982.306 238.385 989.277 246.564C996.248 254.742 1018.93 290.217 1018.93 290.217C1018.77 291.246 1018.39 292.227 1017.81 293.095C1017.24 293.963 1016.48 294.696 1015.6 295.245C1014.71 295.794 1013.72 296.145 1012.69 296.276C1011.66 296.406 1010.61 296.311 1009.62 295.999C1007.57 295.487 1005.76 294.287 1004.49 292.599C1003.22 290.911 1002.57 288.838 1002.65 286.727C1001.71 284.55 1000.31 282.6 998.552 281.009C996.794 279.418 994.717 278.222 992.46 277.501C990.203 276.781 987.818 276.552 985.465 276.832C983.112 277.111 980.846 277.892 978.82 279.121C978.82 279.121 989.849 313.502 1021.27 303.604C1021.27 303.604 1033.45 300.687 1027.05 287.977C1020.65 275.266 1006.24 248.387 1009.05 245.47C1014.73 241.953 1020.76 239.037 1027.05 236.77C1027.05 236.77 1033.45 232.082 1025.9 220.465C1018.36 208.849 1010.76 213.954 1010.76 213.954Z" fill="#755B00"/>
<path d="M1005.04 299.438C993.283 293.551 992.607 278.184 992.555 278.028C992.555 277.89 992.61 277.757 992.707 277.659C992.805 277.562 992.937 277.507 993.075 277.507C993.213 277.507 993.346 277.562 993.443 277.659C993.541 277.757 993.596 277.89 993.596 278.028C993.596 278.028 994.272 292.926 1005.51 298.552C1005.6 298.595 1005.67 298.661 1005.72 298.744C1005.77 298.827 1005.8 298.923 1005.8 299.021C1005.8 299.119 1005.77 299.215 1005.72 299.298C1005.67 299.38 1005.6 299.447 1005.51 299.49L1005.04 299.438Z" fill="#E9AA00"/>
<path d="M896.31 228.07C879.885 261.425 867.167 296.485 858.384 332.619C858.384 332.619 1033.97 378.564 1033.29 411.903C1033.56 413.83 1033.38 415.791 1032.79 417.641C1032.19 419.492 1031.19 421.184 1029.85 422.591C1028.51 423.998 1026.87 425.084 1025.05 425.768C1023.23 426.452 1021.28 426.716 1019.35 426.541C1019.35 426.541 1013.36 438.522 1002.02 434.511L970.808 409.872L842.464 361.947L829.146 348.612L851.1 216.767L896.31 228.07Z" fill="#C09400"/>
<path d="M1089.27 149.464C1089.27 149.464 1100.56 133.524 1091.25 106.853C1081.93 80.1817 1093.27 52.9375 1109.25 52.9375C1125.22 52.9375 1132.5 100.862 1100.56 146.703C1100.56 146.807 1085.94 162.8 1089.27 149.464Z" fill="#E9AA00"/>
<path d="M1110.55 150.142C1110.55 150.142 1105.34 152.173 1107.89 145.506C1110.44 138.838 1145.14 62.1581 1164.44 74.2435C1183.74 86.3288 1151.12 117.532 1132.5 127.534C1113.87 137.535 1110.55 150.142 1110.55 150.142Z" fill="#E9AA00"/>
<path d="M1110.55 150.142C1110.55 150.142 1134.48 95.5493 1149.82 94.8721C1165.17 94.1949 1120.01 125.502 1110.55 150.142Z" fill="#755B00"/>
<path d="M1095.25 146.131C1095.25 146.131 1105.24 120.866 1099.93 102.842C1094.63 84.8184 1105.14 74.2437 1111.22 78.2027C1117.31 82.1617 1108.57 127.534 1095.25 146.131Z" fill="#755B00"/>
<path d="M1066.59 180.199C1050.56 197.337 1028.04 212.287 1006.81 196.087C976.219 172.802 968.884 123.523 959.572 102.321C950.259 81.1197 919.669 27.7253 841.841 65.0232C786.747 91.4339 769.319 134.514 741.434 179.626C746.291 189.666 753.656 198.279 762.816 204.63L763.336 204.005C782.643 213.213 802.403 221.437 822.54 228.644C843.818 235.312 1004.16 255.263 1028.76 242.605C1049.26 232.187 1064.3 177.49 1102.33 187.596C1091.23 182.146 1078.93 179.601 1066.59 180.199V180.199Z" fill="#EFBA40"/>
<path d="M741.433 179.729C729.329 200.167 714.814 219.073 698.201 236.041C634.992 299.333 524.596 361.062 490.104 260.681C490.104 260.681 490.78 311.314 536.666 328.661C582.551 346.007 675.935 312.773 762.92 204.734C753.722 198.396 746.32 189.782 741.433 179.729V179.729Z" fill="#E9AA00"/>
<path d="M1102.59 142.848C1102.59 142.848 1095.93 139.514 1083.28 158.788C1075.93 168.536 1068.02 177.858 1059.61 186.71C1071.22 186.345 1089.74 181.5 1102.33 187.699C1111.77 190.599 1120.49 195.503 1127.87 202.077C1128.33 203.491 1128.94 204.853 1129.69 206.14C1128.88 201.424 1129.39 196.575 1131.15 192.127C1134.25 187.82 1138.81 184.793 1143.99 183.613C1149.16 182.434 1154.58 183.183 1159.24 185.72C1147.12 172.384 1125.84 151.86 1102.59 142.848Z" fill="#E9AA00"/>
<path d="M1131.15 192.127C1129.38 196.575 1128.88 201.424 1129.69 206.14C1131.54 209.898 1134.6 212.923 1138.37 214.727C1142.15 216.532 1146.42 217.012 1150.5 216.09C1155.18 215.473 1159.56 213.411 1163.02 210.19C1166.48 206.969 1168.85 202.75 1169.8 198.118C1169.8 198.118 1165.9 192.909 1159.4 185.72C1154.72 183.139 1149.26 182.365 1144.05 183.546C1138.85 184.727 1134.25 187.781 1131.15 192.127V192.127Z" fill="white"/>
<path d="M762.711 172.125C762.711 172.125 772.024 123.523 813.227 93.9867H808.024C808.024 93.9867 840.644 71.3788 855.939 70.7016L849.28 68.0448C849.28 68.0448 909.108 51.3755 911.709 90.6529C914.31 129.93 881.118 177.23 864.523 219.893C847.927 262.557 837.262 344.393 837.262 344.393C837.262 344.393 1022.16 399.715 999.526 430.97C999.526 430.97 1011.49 441.389 1006.86 450.296C1002.23 459.204 982.93 452.328 982.93 452.328C978.825 455.148 973.882 456.483 968.917 456.114C963.952 455.745 959.261 453.693 955.617 450.296C955.617 450.296 964.305 448.317 958.322 440.972C952.34 433.627 859.476 381.691 813.955 361.74C812.339 359.815 811.348 357.441 811.116 354.937C810.883 352.433 811.42 349.917 812.654 347.727C816.608 339.08 823.944 250.523 823.059 200.567C823.059 200.567 789.14 222.55 773.168 207.235C768.605 202.743 765.253 197.168 763.424 191.028C761.596 184.889 761.35 178.385 762.711 172.125Z" fill="#E9AA00"/>
<path d="M979.549 200.776L951.612 225.415C951.612 225.415 946.93 228.749 954.942 238.074C962.953 247.398 988.861 288.03 988.861 288.03C988.67 289.18 988.239 290.276 987.598 291.249C986.957 292.222 986.119 293.05 985.138 293.678C984.158 294.306 983.056 294.722 981.905 294.897C980.755 295.073 979.58 295.005 978.457 294.698C976.138 294.137 974.083 292.797 972.634 290.9C971.185 289.004 970.43 286.666 970.497 284.279C969.408 281.792 967.801 279.566 965.783 277.751C963.766 275.936 961.384 274.574 958.798 273.755C956.212 272.936 953.482 272.68 950.789 273.004C948.096 273.328 945.503 274.224 943.184 275.632C943.184 275.632 955.826 314.909 991.775 303.605C991.775 303.605 1005.72 300.271 998.434 285.634C991.151 270.996 974.451 240.314 977.624 236.98C984.196 232.932 991.17 229.58 998.434 226.978C998.434 226.978 1005.72 221.769 997.081 208.329C988.445 194.889 979.549 200.776 979.549 200.776Z" fill="#C09400"/>
<path d="M983.659 453.109L982.046 452.015C982.843 450.866 983.353 449.543 983.534 448.157C983.715 446.77 983.562 445.36 983.086 444.045C976.583 422.375 907.339 393.828 906.663 393.568L907.391 391.692C910.305 392.89 978.196 420.916 985.011 443.42C985.569 445.027 985.737 446.743 985.502 448.428C985.267 450.112 984.635 451.717 983.659 453.109V453.109Z" fill="#9E7A00"/>
<path d="M998.85 431.959C978.56 414.925 919.825 387.733 919.252 387.473L920.085 385.649C920.657 385.962 979.653 413.258 1000.1 430.449L998.85 431.959Z" fill="#9E7A00"/>
<path d="M1019.45 427.531H1019.09C1018.96 427.485 1018.85 427.415 1018.75 427.324C1018.66 427.233 1018.58 427.123 1018.53 427.002C1018.47 426.88 1018.44 426.749 1018.44 426.617C1018.44 426.484 1018.46 426.352 1018.51 426.229C1019 424.792 1019.2 423.271 1019.08 421.758C1018.96 420.244 1018.54 418.77 1017.84 417.426C1008.63 397.578 953.796 377.784 953.224 377.575C952.976 377.485 952.773 377.3 952.661 377.061C952.549 376.822 952.536 376.548 952.626 376.299C952.716 376.05 952.9 375.847 953.139 375.735C953.378 375.623 953.652 375.61 953.9 375.7C956.19 376.533 1010.09 395.964 1019.66 416.592C1020.48 418.188 1020.97 419.935 1021.09 421.726C1021.22 423.517 1020.98 425.315 1020.39 427.01C1020.29 427.171 1020.15 427.303 1019.99 427.394C1019.82 427.485 1019.64 427.532 1019.45 427.531V427.531Z" fill="#8B6C00"/>
<path d="M1028.09 424.876H1027.72C1027.6 424.83 1027.48 424.759 1027.39 424.668C1027.29 424.577 1027.21 424.468 1027.16 424.346C1027.11 424.225 1027.08 424.094 1027.08 423.961C1027.08 423.828 1027.1 423.696 1027.15 423.573C1027.8 421.838 1028.07 419.985 1027.96 418.136C1027.84 416.287 1027.33 414.483 1026.47 412.842C1016.64 392.474 964.045 375.753 963.265 375.597C963.015 375.513 962.806 375.337 962.68 375.105C962.555 374.873 962.522 374.602 962.588 374.347C962.672 374.096 962.848 373.887 963.079 373.762C963.311 373.636 963.582 373.603 963.837 373.669C966.074 374.399 1018.05 390.86 1028.24 411.957C1029.23 413.844 1029.81 415.919 1029.95 418.047C1030.08 420.174 1029.77 422.306 1029.02 424.303C1028.94 424.476 1028.8 424.622 1028.64 424.723C1028.47 424.824 1028.28 424.877 1028.09 424.876Z" fill="#8B6C00"/>
<path d="M964.358 298.864C952.808 291.363 950.675 274.224 950.623 273.495H952.6C952.6 273.495 954.681 290.425 965.45 297.405L964.358 298.864Z" fill="#876900"/>
<path d="M972.421 298.916C958.739 292.04 957.958 274.798 957.906 274.068H959.883C959.883 274.068 960.716 290.894 973.305 297.197L972.421 298.916Z" fill="#876900"/>
<path d="M1096.55 163.737L1105.19 164.831C1105.19 164.831 1101.49 174.937 1106.8 174.781C1112.11 174.625 1112 163.998 1112 163.998L1118.04 165.196C1115.54 163.213 1113.44 160.774 1111.85 158.007C1110.29 154.726 1104.41 160.195 1096.55 163.737Z" fill="#1D1D1B"/>
<path d="M1169.75 198.118C1169.75 198.118 1151.12 182.126 1146.49 192.909C1141.86 203.692 1162.41 208.224 1162.41 208.224C1164.5 207.46 1166.31 206.091 1167.62 204.291C1168.93 202.491 1169.67 200.342 1169.75 198.118V198.118Z" fill="#1D1D1B"/>
<path d="M1143.06 215.1C1140.69 215.072 1138.34 214.595 1136.14 213.693C1135.89 213.597 1135.69 213.405 1135.59 213.161C1135.48 212.916 1135.47 212.64 1135.57 212.391C1135.67 212.142 1135.86 211.942 1136.1 211.835C1136.35 211.727 1136.62 211.721 1136.87 211.818C1140.2 213.3 1143.97 213.487 1147.43 212.341C1150.89 211.194 1153.8 208.798 1155.6 205.619C1155.65 205.485 1155.73 205.364 1155.83 205.263C1155.93 205.162 1156.05 205.084 1156.18 205.034C1156.31 204.984 1156.45 204.963 1156.6 204.973C1156.74 204.983 1156.88 205.023 1157 205.092C1157.12 205.16 1157.23 205.254 1157.32 205.368C1157.4 205.482 1157.46 205.613 1157.49 205.752C1157.52 205.891 1157.52 206.035 1157.49 206.174C1157.46 206.312 1157.4 206.443 1157.32 206.557C1155.83 209.05 1153.75 211.135 1151.26 212.626C1148.78 214.117 1145.96 214.967 1143.06 215.1V215.1Z" fill="#73797C"/>
<path d="M1094 209.944C1093.88 209.937 1093.77 209.894 1093.67 209.819C1093.58 209.744 1093.51 209.642 1093.48 209.527C1093.47 209.461 1093.47 209.394 1093.48 209.328C1093.49 209.262 1093.52 209.2 1093.56 209.145C1093.6 209.091 1093.65 209.046 1093.71 209.013C1093.77 208.98 1093.83 208.96 1093.9 208.954L1133.8 202.286C1133.9 202.32 1133.99 202.387 1134.06 202.475C1134.12 202.564 1134.16 202.671 1134.16 202.781C1134.16 202.891 1134.12 202.998 1134.06 203.086C1133.99 203.175 1133.9 203.242 1133.8 203.276L1094 209.944Z" fill="#F4F1EE"/>
<path d="M1138.48 200.618L1093.27 195.409C1093.21 195.409 1093.14 195.396 1093.08 195.369C1093.02 195.342 1092.97 195.303 1092.92 195.254C1092.88 195.204 1092.84 195.146 1092.82 195.083C1092.8 195.02 1092.8 194.954 1092.81 194.888C1092.83 194.755 1092.9 194.634 1093.01 194.548C1093.11 194.463 1093.24 194.417 1093.38 194.419L1138.59 199.628C1138.65 199.628 1138.72 199.641 1138.78 199.668C1138.84 199.695 1138.89 199.734 1138.94 199.783C1138.98 199.833 1139.02 199.891 1139.04 199.954C1139.06 200.017 1139.06 200.083 1139.05 200.149C1139.03 200.282 1138.96 200.403 1138.85 200.489C1138.75 200.574 1138.62 200.62 1138.48 200.618V200.618Z" fill="#F4F1EE"/>
<path d="M1101.91 223.226C1101.82 223.224 1101.72 223.199 1101.64 223.154C1101.56 223.109 1101.49 223.044 1101.44 222.966C1101.39 222.841 1101.39 222.701 1101.43 222.574C1101.48 222.448 1101.58 222.345 1101.7 222.288L1137.6 205.619C1137.66 205.576 1137.73 205.548 1137.81 205.537C1137.88 205.525 1137.96 205.53 1138.03 205.551C1138.11 205.572 1138.17 205.608 1138.23 205.658C1138.29 205.708 1138.33 205.77 1138.36 205.84C1138.4 205.909 1138.41 205.985 1138.41 206.061C1138.41 206.137 1138.39 206.211 1138.36 206.28C1138.32 206.348 1138.28 206.408 1138.22 206.456C1138.16 206.504 1138.09 206.538 1138.01 206.557L1102.12 223.174L1101.91 223.226Z" fill="#F4F1EE"/>
<path d="M836.165 235.966L835.503 242.601L837.47 242.798L838.133 236.163L836.165 235.966Z" fill="#9E7A00"/>
<path d="M840.881 254.443L838.878 261.129L840.771 261.698L842.775 255.012L840.881 254.443Z" fill="#9E7A00"/>
<path d="M828.886 290.687H826.909V294.698H828.886V290.687Z" fill="#9E7A00"/>
<path d="M828.859 327.648L828.193 331.656L830.143 331.981L830.809 327.973L828.859 327.648Z" fill="#9E7A00"/>
<path d="M834.406 357.106L833.31 358.753L839.283 362.74L840.38 361.093L834.406 357.106Z" fill="#9E7A00"/>
<path d="M877.217 373.46L869.933 368.771L870.974 367.104L878.309 371.741L877.217 373.46Z" fill="#9E7A00"/>
<path d="M881.325 381.318L880.337 383.04L884.999 385.723L885.987 384.001L881.325 381.318Z" fill="#9E7A00"/>
<path d="M902.046 373.694L901.42 375.571L903.394 376.231L904.02 374.354L902.046 373.694Z" fill="#9E7A00"/>
<path d="M871.13 343.142H865.095C864.957 343.142 864.825 343.088 864.727 342.99C864.63 342.892 864.575 342.76 864.575 342.622C864.575 342.483 864.63 342.351 864.727 342.253C864.825 342.156 864.957 342.101 865.095 342.101H871.078C871.216 342.101 871.348 342.156 871.446 342.253C871.543 342.351 871.598 342.483 871.598 342.622C871.598 342.76 871.543 342.892 871.446 342.99C871.348 343.088 871.216 343.142 871.078 343.142H871.13Z" fill="#1D1D1B"/>
<path d="M919.668 361.792H919.356L914.154 357.781C914.108 357.737 914.072 357.685 914.047 357.626C914.022 357.568 914.01 357.506 914.01 357.442C914.01 357.379 914.022 357.316 914.047 357.258C914.072 357.2 914.108 357.147 914.154 357.104C914.198 357.058 914.25 357.022 914.308 356.997C914.366 356.972 914.429 356.959 914.492 356.959C914.555 356.959 914.618 356.972 914.676 356.997C914.734 357.022 914.786 357.058 914.83 357.104L920.033 361.063C920.117 361.165 920.163 361.294 920.163 361.427C920.163 361.56 920.117 361.689 920.033 361.792C919.914 361.828 919.787 361.828 919.668 361.792Z" fill="#1D1D1B"/>
<path d="M896.31 356.426L891.627 353.092C891.543 352.99 891.497 352.861 891.497 352.728C891.497 352.595 891.543 352.466 891.627 352.363C891.671 352.318 891.724 352.281 891.782 352.256C891.84 352.231 891.902 352.219 891.965 352.219C892.029 352.219 892.091 352.231 892.149 352.256C892.207 352.281 892.26 352.318 892.304 352.363L896.986 355.697C897.032 355.741 897.068 355.793 897.093 355.852C897.117 355.91 897.13 355.972 897.13 356.036C897.13 356.099 897.117 356.162 897.093 356.22C897.068 356.278 897.032 356.331 896.986 356.374C896.952 356.431 896.904 356.479 896.848 356.514C896.791 356.549 896.727 356.57 896.661 356.575C896.595 356.58 896.528 356.569 896.467 356.543C896.406 356.518 896.352 356.477 896.31 356.426Z" fill="#1D1D1B"/>
<path d="M863.795 277.194C863.726 277.183 863.661 277.157 863.604 277.118C863.548 277.079 863.5 277.028 863.465 276.968C863.43 276.908 863.409 276.841 863.403 276.773C863.397 276.704 863.406 276.634 863.43 276.569L864.731 270.579C864.767 270.449 864.853 270.338 864.97 270.27C865.086 270.202 865.224 270.182 865.355 270.214C865.417 270.226 865.477 270.251 865.529 270.287C865.581 270.323 865.626 270.369 865.66 270.422C865.694 270.476 865.717 270.536 865.727 270.599C865.737 270.661 865.735 270.725 865.719 270.787L864.367 276.778C864.361 276.845 864.341 276.91 864.308 276.968C864.275 277.027 864.23 277.077 864.176 277.117C864.121 277.156 864.059 277.184 863.994 277.197C863.928 277.211 863.86 277.21 863.795 277.194Z" fill="#1D1D1B"/>
<path d="M853.806 299.854C853.744 299.842 853.685 299.817 853.632 299.781C853.58 299.746 853.536 299.7 853.501 299.646C853.467 299.592 853.445 299.532 853.434 299.47C853.424 299.407 853.427 299.343 853.442 299.281L854.118 295.947C854.118 295.823 854.168 295.704 854.256 295.616C854.343 295.528 854.462 295.479 854.587 295.479C854.711 295.479 854.83 295.528 854.918 295.616C855.005 295.704 855.055 295.823 855.055 295.947L854.43 299.281C854.431 299.361 854.415 299.44 854.383 299.513C854.351 299.586 854.304 299.652 854.245 299.706C854.186 299.76 854.117 299.801 854.041 299.827C853.966 299.852 853.886 299.861 853.806 299.854V299.854Z" fill="#1D1D1B"/>
<path d="M877.113 251.2H876.852C876.772 251.106 876.728 250.986 876.728 250.862C876.728 250.738 876.772 250.618 876.852 250.523L878.881 247.189C878.925 247.144 878.978 247.107 879.036 247.082C879.094 247.058 879.156 247.045 879.22 247.045C879.283 247.045 879.345 247.058 879.403 247.082C879.461 247.107 879.514 247.144 879.558 247.189C879.603 247.233 879.64 247.286 879.664 247.344C879.689 247.402 879.702 247.465 879.702 247.528C879.702 247.591 879.689 247.654 879.664 247.712C879.64 247.77 879.603 247.823 879.558 247.867L877.581 251.2C877.51 251.242 877.429 251.263 877.347 251.263C877.264 251.263 877.184 251.242 877.113 251.2V251.2Z" fill="#1D1D1B"/>
<path d="M801.117 188.554L790.473 189.221L790.597 191.196L801.241 190.53L801.117 188.554Z" fill="#9E7A00"/>
<path d="M810.163 168.625L804.173 171.29L804.976 173.099L810.966 170.434L810.163 168.625Z" fill="#9E7A00"/>
<path d="M795.174 144.984L794.082 143.369L800.689 138.681L801.833 140.296L795.174 144.984Z" fill="#9E7A00"/>
<path d="M791.942 160.737L786.608 166.078L788.006 167.478L793.34 162.137L791.942 160.737Z" fill="#9E7A00"/>
<path d="M831.397 99.3352L824.068 104.007L825.13 105.677L832.459 101.005L831.397 99.3352Z" fill="#9E7A00"/>
<path d="M842.621 129.149L842.465 127.169L851.101 126.492L851.257 128.524L842.621 129.149Z" fill="#9E7A00"/>
<path d="M879.922 97.0598L874.563 93.7259L875.656 92.0068L880.962 95.3407L879.922 97.0598Z" fill="#9E7A00"/>
<path d="M845.482 173.479H843.505V182.126H845.482V173.479Z" fill="#9E7A00"/>
<path d="M869.563 167.136L865.557 176.469L867.373 177.25L871.379 167.918L869.563 167.136Z" fill="#9E7A00"/>
<path d="M897.246 218.955L887.986 214.319L888.87 212.548L898.183 217.184L897.246 218.955Z" fill="#9E7A00"/>
<path d="M906.393 189.387L904.995 190.787L908.968 194.765L910.366 193.365L906.393 189.387Z" fill="#9E7A00"/>
<path d="M922.049 150.426L920.156 150.995L922.159 157.681L924.052 157.112L922.049 150.426Z" fill="#9E7A00"/>
<path d="M933.099 102.841L931.518 104.029L935.514 109.363L937.096 108.175L933.099 102.841Z" fill="#9E7A00"/>
<path d="M925.773 186.669L924.272 187.957L928.268 192.624L929.769 191.335L925.773 186.669Z" fill="#9E7A00"/>
<path d="M950.675 164.519L949.323 161.185L951.196 160.456L952.548 163.79L950.675 164.519Z" fill="#9E7A00"/>
<path d="M933.72 222.321L933.441 224.28L938.128 224.949L938.407 222.989L933.72 222.321Z" fill="#9E7A00"/>
<path d="M960.897 193.378L959.499 194.777L962.147 197.43L963.545 196.031L960.897 193.378Z" fill="#9E7A00"/>
<path d="M1015.03 210.537L1014.75 212.497L1019.38 213.16L1019.66 211.2L1015.03 210.537Z" fill="#9E7A00"/>
<path d="M974.866 218.694C974.678 218.698 974.494 218.646 974.336 218.544C974.178 218.441 974.055 218.294 973.982 218.121C973.92 218.002 973.884 217.871 973.874 217.738C973.865 217.604 973.882 217.47 973.926 217.343C973.97 217.217 974.039 217.1 974.129 217.001C974.219 216.902 974.328 216.822 974.45 216.766L978.404 214.787C978.523 214.725 978.653 214.689 978.786 214.679C978.92 214.67 979.054 214.687 979.18 214.731C979.307 214.775 979.423 214.844 979.522 214.934C979.621 215.024 979.701 215.134 979.756 215.256C979.817 215.371 979.853 215.498 979.862 215.627C979.871 215.757 979.853 215.888 979.809 216.01C979.765 216.133 979.696 216.245 979.606 216.339C979.517 216.433 979.408 216.508 979.288 216.558L975.334 218.59L974.866 218.694Z" fill="#826500"/>
<path d="M969.56 241.718C969.322 241.721 969.092 241.639 968.91 241.486C968.729 241.333 968.608 241.12 968.571 240.885L967.895 236.874C967.873 236.744 967.877 236.61 967.907 236.482C967.937 236.353 967.992 236.232 968.07 236.125C968.147 236.018 968.245 235.928 968.358 235.86C968.471 235.792 968.597 235.747 968.727 235.728C968.986 235.708 969.243 235.781 969.452 235.934C969.662 236.087 969.811 236.309 969.872 236.561L970.548 240.572C970.568 240.831 970.495 241.089 970.342 241.299C970.19 241.509 969.968 241.657 969.716 241.718H969.56Z" fill="#826500"/>
<path d="M980.173 265.577C979.957 265.582 979.745 265.512 979.575 265.38C979.404 265.247 979.284 265.059 979.236 264.847L978.56 262.191C978.496 261.929 978.536 261.652 978.672 261.418C978.808 261.185 979.029 261.014 979.288 260.941C979.415 260.91 979.546 260.904 979.675 260.924C979.803 260.944 979.927 260.989 980.038 261.056C980.149 261.124 980.246 261.213 980.323 261.319C980.399 261.424 980.455 261.543 980.485 261.67L981.161 264.379C981.192 264.505 981.198 264.637 981.178 264.766C981.159 264.894 981.113 265.018 981.046 265.129C980.978 265.241 980.889 265.337 980.784 265.414C980.679 265.491 980.56 265.546 980.433 265.577H980.173Z" fill="#826500"/>
<path d="M1005.56 258.545C1005.5 258.577 1005.43 258.594 1005.35 258.594C1005.28 258.594 1005.21 258.577 1005.14 258.545L1003.12 254.534C1003.06 254.41 1003.06 254.269 1003.11 254.143C1003.16 254.016 1003.25 253.914 1003.38 253.857C1003.47 253.789 1003.58 253.753 1003.69 253.753C1003.8 253.753 1003.91 253.789 1004 253.857L1006.03 257.868C1006.08 257.993 1006.08 258.133 1006.04 258.259C1005.99 258.386 1005.89 258.488 1005.77 258.545H1005.56Z" fill="#1D1D1B"/>
<path d="M1014.77 275.214C1014.67 275.207 1014.58 275.174 1014.49 275.119C1014.41 275.065 1014.35 274.99 1014.3 274.901L1013 271.568C1012.95 271.443 1012.94 271.303 1012.99 271.176C1013.04 271.05 1013.14 270.947 1013.26 270.89C1013.32 270.866 1013.39 270.855 1013.45 270.858C1013.52 270.861 1013.58 270.877 1013.64 270.907C1013.7 270.936 1013.75 270.978 1013.79 271.029C1013.84 271.08 1013.87 271.139 1013.88 271.203L1015.24 274.485C1015.29 274.609 1015.29 274.75 1015.24 274.876C1015.2 275.002 1015.1 275.105 1014.98 275.162L1014.77 275.214Z" fill="#1D1D1B"/>
<path d="M1025.64 227.228L1019.65 229.894L1020.46 231.702L1026.45 229.037L1025.64 227.228Z" fill="#9E7A00"/>
<path d="M1053.28 202.107L1049.97 205.422L1051.37 206.822L1054.68 203.507L1053.28 202.107Z" fill="#9E7A00"/>
<path d="M1088.86 175.326L1084.86 176.66L1085.49 178.538L1089.49 177.204L1088.86 175.326Z" fill="#9E7A00"/>
<path d="M1102.38 151.949L1098.38 152.615L1098.71 154.568L1102.71 153.901L1102.38 151.949Z" fill="#9E7A00"/>
<path d="M1132.66 172.885L1130.96 173.904L1132.94 177.209L1134.64 176.19L1132.66 172.885Z" fill="#9E7A00"/>
<path d="M740.038 197.36L736.727 200.675L738.125 202.074L741.435 198.759L740.038 197.36Z" fill="#9E7A00"/>
<path d="M722.022 229.405L716.692 236.076L718.236 237.313L723.566 230.642L722.022 229.405Z" fill="#9E7A00"/>
<path d="M683.63 269.951L680.329 271.935L681.347 273.632L684.648 271.648L683.63 269.951Z" fill="#9E7A00"/>
<path d="M610.728 308.252L608.73 310.919L610.312 312.107L612.309 309.44L610.728 308.252Z" fill="#9E7A00"/>
<path d="M569.805 326.994H563.822V328.974H569.805V326.994Z" fill="#9E7A00"/>
<path d="M534.362 316.405L533.381 318.124L538.034 320.786L539.014 319.067L534.362 316.405Z" fill="#9E7A00"/>
<path d="M1631.33 1105.73L1630.66 1105.82L1630.85 1107.37L1631.52 1107.28L1631.33 1105.73Z" fill="#1D1D1B"/>
<path d="M1635.05 1105.93C1633.91 1106.19 1632.71 1106.34 1631.52 1106.5C1632.71 1106.34 1633.91 1106.14 1635.05 1105.93Z" fill="white"/>
<path d="M1631.52 1107.28V1105.72C1632.82 1105.72 1633.96 1105.35 1635 1105.14L1635.37 1106.71C1634.07 1106.92 1632.87 1107.12 1631.52 1107.28Z" fill="#1D1D1B"/>
<path d="M1654.15 1049.09C1634.95 1026.95 1636.56 1019.09 1644.52 966.945C1652.48 914.801 1612.63 876.93 1574.29 891.151C1567.01 893.876 1560.29 897.92 1554.47 903.08L1559.93 900.631C1559.93 900.631 1527.99 940.117 1555.15 982.729C1582.3 1025.34 1583.86 1026.95 1585.48 1061.7C1586.93 1094.15 1610.76 1108.58 1630.79 1106.6H1631.41C1632.61 1106.6 1633.81 1106.29 1634.95 1106.03C1650.92 1102.75 1673.29 1071.18 1654.15 1049.09Z" fill="#8D004C"/>
<path d="M1585.48 1061.7C1583.86 1026.95 1582.25 1025.24 1555.15 982.728C1528.04 940.221 1559.93 900.631 1559.93 900.631L1554.47 903.079C1542.55 913.79 1535.15 928.648 1533.79 944.627C1532.43 960.605 1537.2 976.503 1547.13 989.083C1574.29 1025.55 1571.06 1036.43 1571.06 1036.43C1569.61 1106.5 1611.8 1109.1 1630.79 1106.6C1610.76 1108.69 1586.93 1094.15 1585.48 1061.7Z" fill="#E6007E"/>
<path d="M1580.69 902.194C1580.69 902.194 1561.49 985.906 1580.69 990.751C1599.89 995.595 1575.9 967.049 1588.65 918.134C1588.65 918.134 1620.59 951.265 1626.99 976.53C1633.39 1001.79 1652.53 986.01 1634.95 962.308C1617.37 938.607 1583.86 889.588 1580.69 902.194Z" fill="#FFED00"/>
<path d="M1744.98 1157.81L1744.31 1156.4L1744.83 1156.14L1745.55 1157.55L1745.14 1157.76L1744.98 1157.81Z" fill="#1D1D1B"/>
<path d="M1741.55 1158.44C1742.59 1158.05 1743.62 1157.62 1744.62 1157.13C1743.53 1157.65 1742.49 1158.07 1741.55 1158.44Z" fill="white"/>
<path d="M1741.86 1159.16L1741.29 1157.71L1744.31 1156.35L1744.98 1157.76C1743.97 1158.29 1742.93 1158.76 1741.86 1159.16Z" fill="#1D1D1B"/>
<path d="M1697.48 1123.9C1700.97 1097.02 1695.61 1091.65 1662.42 1055.19C1629.23 1018.72 1640.67 968.977 1678.03 960.642C1685.09 959.037 1692.4 958.772 1699.56 959.861L1694.1 960.747C1694.1 960.747 1739.36 975.28 1740.35 1022.22C1741.34 1069.15 1740.87 1071.13 1757.62 1099C1773.23 1125.04 1762.25 1148.33 1745.55 1156.87H1745.03C1744.03 1157.36 1743.01 1157.8 1741.96 1158.18C1727.5 1164.06 1693.74 1150.83 1697.48 1123.9Z" fill="#E6007E"/>
<path d="M1757.21 1099.05C1740.46 1071.18 1740.87 1069.15 1739.94 1022.27C1739 975.383 1693.69 960.798 1693.69 960.798L1699.15 959.912C1713.96 962.12 1727.38 969.858 1736.72 981.57C1746.06 993.282 1750.63 1008.1 1749.51 1023.05C1747.17 1065.09 1755.39 1072.07 1755.39 1072.07C1792.84 1125.83 1761.37 1149.16 1745.24 1156.87C1761.84 1148.33 1772.82 1125.1 1757.21 1099.05Z" fill="#8D004C"/>
<path d="M1678.34 972.466C1678.34 972.466 1736.61 1027.89 1724.12 1041.28C1711.63 1054.67 1715.59 1020.44 1680.32 988.77C1680.32 988.77 1672.62 1030.76 1680.73 1053.68C1688.85 1076.6 1665.75 1073.94 1667.15 1046.64C1668.56 1019.35 1669.34 964.235 1678.34 972.466Z" fill="#FFED00"/>
</g>
<defs>
<clipPath id="clip0">
<rect width="1282.92" height="1243.96" fill="white" transform="translate(490 52)"/>
</clipPath>
</defs>
</svg>
