<?xml version="1.0" encoding="utf-8"?>
<!-- Generator: Adobe Illustrator 19.2.1, SVG Export Plug-In . SVG Version: 6.00 Build 0)  -->
<svg version="1.1" id="Layer_1" xmlns="http://www.w3.org/2000/svg" xmlns:xlink="http://www.w3.org/1999/xlink" x="0px" y="0px"
	 viewBox="0 0 150 150" enable-background="new 0 0 150 150" xml:space="preserve">
<path fill="#9AD5EC" d="M129.6,56c10.5,30.9-6.1,64.4-36.9,74.9s-64.4-6-74.9-36.9c-10.5-30.9,6-64.4,36.9-74.9S119.2,25.2,129.6,56
	"/>
<path opacity="0.49" fill="#009FDA" d="M129.6,56.1c10.5,30.9-6.1,64.4-36.9,74.9s-64.4-6-74.9-36.9c-10.5-30.9,6-64.4,36.9-74.9
	S119.2,25.3,129.6,56.1"/>
<g>
	<defs>
		<path id="SVGID_1_" d="M129.6,55.8c10.5,30.9-6.1,64.4-36.9,74.9s-64.4-6-74.9-36.9c-10.5-30.9,6-64.4,36.9-74.9
			S119.2,24.9,129.6,55.8"/>
	</defs>
	<clipPath id="SVGID_2_">
		<use xlink:href="#SVGID_1_"  overflow="visible"/>
	</clipPath>
	<g id="XMLID_2_" clip-path="url(#SVGID_2_)">
		<g id="XMLID_16_">
			<g id="XMLID_17_">
				<path id="XMLID_18_" fill="#00AC3E" d="M141.7,109.3c-0.3,0.1-0.7-0.3-0.8-0.7c0,0,0,0,0-0.1c-0.1-0.1-0.2-0.2-0.2-0.3
					c0,0,0,0,0,0c0,0,0,0-0.1,0c0,0,0,0,0,0c-0.2,0.1-0.5-0.1-0.6-0.4c-0.1-0.3,0-0.6,0.3-0.7c0,0,0,0,0,0c0.2-0.1,0.5,0.1,0.6,0.4
					l0,0c0.1-0.1,0.3-0.3,0.5-0.3c0,0,0,0,0,0c0.1,0,0.2,0,0.3,0c0-0.3,0.2-0.5,0.4-0.6c0,0,0,0,0,0c0.3-0.1,0.6,0.2,0.7,0.5
					c0.1,0.3,0,0.6-0.2,0.8c0,0.3-0.3,0.5-0.6,0.7C142,108.9,141.9,109.2,141.7,109.3C141.7,109.3,141.7,109.3,141.7,109.3
					 M138.3,104.3c-0.2,0-0.3,0-0.4,0c-0.4-0.2-0.9-0.1-1.6-0.1c-0.7,0-1.1-0.5-1.4-1.3c-0.3-0.7-1.4-1-1.4-1l-0.7,0.1l0.1-2.1
					l-0.7-0.5l-0.7,0.4l-0.5,2.2l-0.4-0.3c0,0-0.5-0.5-1-0.5c-0.5,0-0.7-1.3-0.8-1.6c-0.1-0.2-0.7-0.2-1.2,0c-0.2,0-0.4,0.1-0.5,0.2
					c0,0-0.1,0-0.1,0c-0.2,0.1-0.5,0-0.9,0c-0.3,0-0.7-0.1-0.9,0c0,0,0,0,0,0c-0.5,0.1-2.2,1.7-3.3,2c-0.1,0-0.2,0-0.3,0
					c-0.1,0-0.2,0-0.2,0c-0.9,0.2-1.3,1.6-1.5,2.4c-0.2,0.8-2.2,1.1-2.8,1.3c-0.6,0.2-1,1.5-2.4,2.4c-0.1,0.1-0.3,0.1-0.4,0.2
					c-1,0.3-1-1.4-0.8-2c0.2-0.7-0.9-1.5-1.2-1.7c-0.3-0.2-2.9-2.7-2.9-2.7c-1.1-1-1.1-1.6-0.8-1.9c0.3-0.3,0.2-0.7-0.4-1.1
					c-0.6-0.3-1.2-1.1-1.4-1.5c-0.2-0.4,1.2-1.8,1.5-2.5c0.3-0.6,3.7-2.8,4.2-3.3c0.4-0.6,0.6-3.1,0.6-3.4c0,0,0,0,0,0l1-1.3
					c0,0,0.1-0.1,0.1-0.1l-0.1,0.1c-0.2,0.2-0.4,0.4-0.6,0.7c0.3-0.5,0.7-1.2,1.2-2.3c0.4-0.9,0.7-1.3,1-1.4
					c0.3-0.1,0.7,0.2,1.1,0.4c0.3,0.1,0.6,0.1,0.9,0c0.6-0.1,1.1-0.5,1.3-0.8c0.3-0.5,0.3-1.8,0.3-1.8s0.4-0.8,0.5-1
					c0-0.1,0.1-0.1,0.2-0.1c0.3-0.1,0.9,0,1.2,0c0,0,0.1,0,0.1,0c0.3-0.1,0.4-0.9,0.5-1.2c0-0.1,0.1-0.1,0.1-0.1
					c0.2-0.1,0.6,0.3,1.1,0.4c0.2,0.1,0.4,0.1,0.6,0c0.3-0.1,0.5-0.3,1-0.6c0.2-0.1,0.3-0.2,0.4-0.2c0.3-0.1,0.2,0.4,0.2,0.5
					c0.1,0.2-0.1,0.2-0.6,1.2c-0.5,0.9,0.6,1.2,0.8,1.5c0.2,0.3,0.9,0.4,1.4,0.3c0.5-0.1,0.6,0.1,1.5,0.7c0.9,0.6,0.8,0.5,1.2,0.8
					c0.2,0.1,0.4,0.2,0.6,0.1c0.2,0,0.3-0.1,0.5-0.2c0.4-0.2,0.5-1,0.7-1.6c0.2-0.6,0.3-1.4,0-2.3c-0.4-0.9-0.7-3.2-0.7-3.2
					c0.1-0.4,0.2-0.6,0.3-0.6c0.1,0,0.3,0,0.5,0c0.4,0,0.8,1.2,1.1,2.2c0.3,1.1,0.7,1,1.2,1c0.5,0,0.7,0.2,1.2,0.6
					c0.5,0.5,0.7,1.6,0.7,1.8c0,0.2,0,0.5,0.3,0.5c0.3,0,0.3,0.5,0.1,0.9c-0.2,0.4,0.1,0.5,0.7,0.9c0.6,0.4,1.1,0.1,1.9,0
					c0.8-0.1,0.7,1.8,0.8,1.9c0.1,0.1,0.4,1,1.7,1.1c1.6,0.2,1.4,0.5,1.7,1.2c0.3,0.7-0.1,0.5,1.4,1.4c1.5,0.9,0.4,5.8,0.3,6.2
					c-0.1,0.4,0,3.3-0.3,3.7c-0.3,0.5-1.4,2-1.3,2.9c0.1,0.6-1,1.1-1.8,1.3c-0.4,0.1-0.7,0.1-0.9,0.1c-0.2,0-0.4-0.1-0.5,0
					c-0.2,0-0.4,0.2-0.5,0.4C138.8,104.1,138.5,104.2,138.3,104.3 M113,87.9c0-0.1,0.2-0.4,0.5-0.7C113.3,87.6,113.1,87.8,113,87.9
					L113,87.9z"/>
			</g>
		</g>
	</g>
</g>
<path fill="#00AC3E" d="M55.4,70.6l-0.5,2.7l-1.2,2.6c0,0-0.3,0.4-0.5,1.5c-0.2,1.1-0.7,2.9-0.5,3.6c0.2,0.7,0.3,2.2,0.7,2.7
	c0.5,0.5,0.5,1.9,0.5,1.9l2.4,2.2c0,0,1.4,2.1,1.8,2.1c0.4,0,3.1,0.3,3.1,0.3l2.1-1.4l3.1-1.4l1.8-0.9l1.1,0.6c0,0,2.1-0.6,2.3-0.1
	c0.3,0.6-0.6-0.2-0.4,1.8c0.2,1.9,1.4,3.1,1.4,3.1s1.4,0.2,1.6,0.6c0.2,0.4,1.7,1.4,1.9,2c0.2,0.6,0.7,2.7,0.7,2.7s0.1,1.9,0.2,3.3
	c0.1,1.4-0.7,1.6,1.2,2.9c1.9,1.3,2.8,2.3,3.7,3.4c0.8,1.1,1.6,2.8,1.6,2.8s1.1,1.4,1.8,1c0.6-0.4,0.7-0.5,1.4-0.9
	c0.7-0.4,3.6-1.5,3.3-2.1c-0.3-0.6,1.1-4.5,1.1-4.5s1.2-1.2,1.1-1.7c-0.2-0.6,0.2-2.9,0.2-2.9l-1.1-1.5l1.4-2.9c0,0-0.3,1.2-0.2-0.7
	c0-1.9-1.1-3.3-1.1-3.3s-2-0.9-1.4-1.5c0.5-0.6,1.1-2.7,1.3-3.5c0.3-0.8,0.9-1.4,1.8-3.7c1-2.4,1.1-2.6,1.2-3
	c0.1-0.3-1.1-3.1-1.1-3.1c-1.8,0.8-3.3,0.3-3.3,0.3s-1.5-0.8-2.4-1.3c-0.9-0.6-4.4-1.9-4.2-2.6c0.2-0.7-1.7-3.8-2-4.1
	c-0.3-0.3-1.1-1.3-1.1-1.3l-0.7-1.3l-3.6,0.4l-3.5,0.7c0,0-0.3,1.5-0.9,1.4c-0.7-0.1-2.4,1-3.2,0.3l-0.8-0.7l-1.5-2L64.7,65
	l-2.9,0.9l-2.2,1.4c0,0-0.3,0.8-1.3,1c-1,0.2-2.4,0.3-2.4,0.3L55.4,70.6z"/>
<path fill="#00AC3E" d="M129.6,56.1c-7-19.8-23.3-34-39.8-37.8c-0.9-0.2-2.3,1.7-3.8,4c-0.9,1.4-1.9,3-2.7,4.3
	c-1,1.5-1.8,2.6-2.3,2.6c-1.8,0.2-2.3,1.7-4.3,2.2c-2.1,0.5-0.9,0-0.8-1.6c0.1-1.6-1.1-1-1.3-1c-0.2,0-2.9-0.2-5.2,0.4
	c-2.3,0.7-4.2,1.9-5.2,3.6c-1,1.7-2.9,3.8-3.7,4.3c-0.9,0.5-2.1,4.9-2.9,6.4C56.8,45.1,59,46,59,46l0.9-0.2l4.8-2
	c0,0,0.3-1.8-0.5-2.3c-0.8-0.5,0.2-1.7,0.4-2.9c0.2-1.2,1.5-1.6,1.5-1.6s0.4-0.2,0.7-0.4c0.1,0.2,1.3,0.5,1.3,0.5l1.6,0.4l1.3,3.8
	l-1.4,2.4l-0.9,2.2l-1.1,1.3l-1.8,0.4l-2.7-0.8l-0.7-0.2c-0.7-0.2-0.6,0.1-0.6,0.1l-2.2,2c-2.2,2-1.4,2.4-2.1,3.8
	c-0.7,1.4-0.2,0.5-0.6,0.8c-0.5,0.3-1.4,2-2,2.2c-0.6,0.2,0.9,0.5,1.9,0.7c1.1,0.2,1,1.3,1,1.3L57.2,59l-1.7,0.6c0,0-0.9,1-2.1,2.4
	c-1.1,1.3,1,1.1,1,1.1l4.1,0.1l0.9-1.2l2.8-3.8l-1.4,0.6c0,0,1.4-0.6,2.1-1.3c0.7-0.8,1.8,0.7,1.8,0.7l2.2,0.5c0,0,1.1,1.4,1,1.9
	c-0.1,0.5,0.6,1.2,0.6,1.2l1.1-0.7l0.1-1.9c0,0-0.3-1-0.8-1.4c-0.5-0.4-0.1-1.6-0.1-1.6l0.9-0.2l5,0.5c0,0,0.3,1.2,0,1.9
	c-0.3,0.7,0.9,2.2,0.9,2.2l1.8,0.9l0.1,1.6l1.8,0.3l1.9,1.4l1.1-0.4l1.3,1l1.8,2.4l4.7,2.3c0,0,4.6-1.1,4.4-2
	c-0.3-0.9,1.8-2.1,2.9-2.8c1.2-0.8-0.4-2.4-0.4-2.4s-2.1-0.2-2.2,0c-0.1,0.2-0.8,0.7-1.1,0.8c-0.3,0.1-0.9-0.5-0.9-0.5
	s-1.2-0.8-2.3-1.5c-1-0.7-0.7-2.8-0.7-2.8s2,0.1,2.5,0.4c0.5,0.3,2.4,1,2.4,1s1.1-0.8,2.9-1c1.8-0.2,1.3-0.4,1.3-0.4s3.5,0.6,4,1.2
	c0.5,0.6,1.3,2.5,2.3,3.6c1,1.1,2.6,5.3,3.9,6.8c1.3,1.5,3,0.5,4.1,0.3c1.1-0.1-1.2-4-0.8-5.7c0.4-1.7,1.2-4.1,0.3-4.7
	c-0.5-0.3,0.4-0.6,1.5-0.8c0.2,0,1.9-3.4,4-3.8c1.4-0.3,1.2-3,2.7-3.4c1-0.2,5.1,2,6,1.8C129.1,53.5,129.5,56.2,129.6,56.1"/>
<path fill="#00AC3E" d="M27.8,66.9c1.2-1.8,2.6-3.8,2.6-3.8L29.2,60c0,0-3.2-2.7-3.5-1.2c-0.3,1.5-1.9-0.5-1.9-0.5s1-1-0.6-1.1
	c-1.6-0.1-4.9,0.2-4.9,0.2l-0.7-0.6c-3.6,11-4,23-0.5,34.8c0.2,0,0.4,0.1,0.6,0.2c2.4,0.9,4.3,1.3,4.1,1.1c-0.1-0.2,0.1-1.6,0.1-3.9
	c-0.1-2.3,0.6-1.7,0.5-4.1c-0.1-2.4,4.6-2,2-2.9c-2.7-0.9-0.8-3.5-0.7-4c0.1-0.4-1.2-1.8,0.8-2.5c0.6-0.2,1-0.2,1.4-0.2
	c0.8,0,1.1,0.2,2.3-1.5c0.8-1.2,1.3-1.3,1.6-1.4c0.3-0.1,0.3,0,0.1-1.1c-0.3-1.8-2.7-2.8-3.3-3C26.8,68.2,27.1,68,27.8,66.9"/>
<g>
	<defs>
		<rect id="SVGID_3_" x="10.2" y="61.2" width="21.8" height="11.6"/>
	</defs>
	<clipPath id="SVGID_4_">
		<use xlink:href="#SVGID_3_"  overflow="visible"/>
	</clipPath>
	<g clip-path="url(#SVGID_4_)">
		<defs>
			<rect id="SVGID_5_" x="10.2" y="61.2" width="21.8" height="11.6"/>
		</defs>
		<clipPath id="SVGID_6_">
			<use xlink:href="#SVGID_5_"  overflow="visible"/>
		</clipPath>
		<path clip-path="url(#SVGID_6_)" fill="#EA567A" d="M26.2,64.2c0.2,0,0.4,0.1,0.6,0.3c0.2,0.3,0.2,0.5,0.2,0.7
			c0,0.1-0.1,0.3-0.3,0.4H32v-2.9v-1c0-0.3-0.2-0.5-0.5-0.5h-6.2v3.7C25.5,64.5,25.8,64.2,26.2,64.2"/>
		<path clip-path="url(#SVGID_6_)" fill="#EA567A" d="M23.1,65.2c-0.1-0.2-0.1-0.4,0.2-0.7c0.2-0.2,0.4-0.3,0.6-0.3
			c0.4,0,0.7,0.3,0.9,0.7v-3.7H10.7c-0.3,0-0.5,0.2-0.5,0.5v1v2.9h13.2C23.3,65.4,23.2,65.3,23.1,65.2"/>
		<path clip-path="url(#SVGID_6_)" fill="#EA567A" d="M24.8,66.7l-0.6,0.6c0,0.1-0.1,0.1-0.2,0.1c-0.1,0-0.3-0.1-0.3-0.3
			c0-0.1,0-0.1,0.1-0.2l0,0l0,0c0,0,0,0,0,0l0.7-0.7c-0.1,0-0.3-0.1-0.4-0.1H10.2v5.4v1c0,0.3,0.2,0.5,0.5,0.5h14.1L24.8,66.7
			L24.8,66.7z"/>
		<path clip-path="url(#SVGID_6_)" fill="#EA567B" d="M26.2,64.7C26.2,64.7,26.2,64.7,26.2,64.7L26.2,64.7c-0.2,0-0.5,0.4-0.7,0.8
			h0.1c0.3-0.1,0.6-0.3,0.8-0.4c0,0,0.1-0.1,0.1-0.2C26.4,64.8,26.3,64.7,26.2,64.7"/>
		<path clip-path="url(#SVGID_6_)" fill="#EA567A" d="M25.5,66.2l0.7,0.7c0,0,0,0,0,0l0,0l0,0c0,0,0.1,0.1,0.1,0.2
			c0,0.1-0.1,0.3-0.3,0.3c-0.1,0-0.1,0-0.2-0.1l0,0l0,0c0,0,0,0,0,0l-0.6-0.6l0,0v6.2h6.2c0.3,0,0.5-0.2,0.5-0.5v-1V66h-6.1
			C25.8,66.1,25.7,66.1,25.5,66.2"/>
		<path clip-path="url(#SVGID_6_)" fill="#EA567B" d="M23.9,64.7C23.9,64.7,23.9,64.7,23.9,64.7c-0.2,0-0.3,0.1-0.3,0.2c0,0,0,0,0,0
			c0,0,0,0,0,0c0,0,0,0,0,0c0,0,0,0,0,0c0,0.1,0.1,0.1,0.2,0.2c0,0,0,0,0,0c0,0,0.1,0,0.1,0.1c0,0,0,0,0,0c0,0,0.1,0,0.1,0.1
			c0,0,0,0,0,0c0,0,0.1,0,0.1,0c0,0,0,0,0.1,0c0,0,0.1,0,0.1,0c0,0,0,0,0,0h0.1C24.3,65.1,24.1,64.8,23.9,64.7"/>
		<polygon clip-path="url(#SVGID_6_)" fill="#E3131C" points="23.8,66.9 23.8,66.9 23.8,66.9 		"/>
		<polygon clip-path="url(#SVGID_6_)" fill="#E3131C" points="26.3,66.9 26.3,66.9 26.3,66.9 		"/>
		<path clip-path="url(#SVGID_6_)" fill="#E3131C" d="M25.9,67.3C25.9,67.3,25.9,67.3,25.9,67.3L25.9,67.3L25.9,67.3z"/>
		<path clip-path="url(#SVGID_6_)" fill="#FFFFFF" d="M12.7,65.6h4.8v-1.2c0-0.1,0-0.2-0.1-0.2h-4.6c-0.1,0-0.1,0.1-0.1,0.2V65.6z"
			/>
		<path clip-path="url(#SVGID_6_)" fill="#FFFFFF" d="M12.7,66.7h4.8v1.3c0,0.1,0,0.2-0.1,0.2h-4.6c-0.1,0-0.1-0.1-0.1-0.2V66.7"/>
		<rect x="12.7" y="66" clip-path="url(#SVGID_6_)" fill="#CFD4D7" width="4.8" height="0.7"/>
		<path clip-path="url(#SVGID_6_)" fill="#FFFFFF" d="M25.3,72.8v-6.2l0,0l0.6,0.6c0,0,0,0,0,0c0,0,0,0,0,0c0,0,0.1,0.1,0.2,0.1
			c0.1,0,0.3-0.1,0.3-0.3c0-0.1,0-0.1-0.1-0.2c0,0,0,0,0,0c0,0,0,0,0,0l-0.7-0.7c0.1,0,0.3-0.1,0.4-0.1H32v-0.4h-5.3
			c0.1-0.1,0.2-0.2,0.3-0.4c0.1-0.2,0.1-0.4-0.2-0.7c-0.2-0.2-0.4-0.3-0.6-0.3c-0.4,0-0.7,0.3-0.9,0.7v-3.7h-0.4v3.7
			c-0.2-0.4-0.6-0.7-0.9-0.7c-0.2,0-0.4,0.1-0.6,0.3c-0.2,0.3-0.2,0.5-0.2,0.7c0,0.1,0.1,0.3,0.3,0.4H10.2V66h13.9
			c0.1,0.1,0.3,0.1,0.4,0.1l-0.7,0.7c0,0,0,0,0,0c0,0,0,0,0,0c0,0-0.1,0.1-0.1,0.2c0,0.1,0.1,0.3,0.3,0.3c0.1,0,0.1,0,0.2-0.1
			l0.6-0.6l0,0v6.2H25.3z M24.5,65.6C24.4,65.6,24.4,65.5,24.5,65.6c-0.1,0-0.1,0-0.1-0.1c0,0,0,0-0.1,0c0,0-0.1,0-0.1,0
			c0,0,0,0,0,0c0,0-0.1,0-0.1-0.1c0,0,0,0,0,0c0,0-0.1,0-0.1-0.1c0,0,0,0,0,0c-0.1-0.1-0.2-0.1-0.2-0.2c0,0,0,0,0,0c0,0,0,0,0,0
			c0,0,0,0,0,0c0,0,0,0,0,0c0-0.1,0.1-0.2,0.2-0.2c0,0,0,0,0.1,0C24.1,64.8,24.3,65.1,24.5,65.6L24.5,65.6z M26.4,65.1
			c-0.1,0.2-0.4,0.3-0.8,0.4h-0.1c0.2-0.4,0.5-0.8,0.7-0.8c0,0,0,0,0,0c0,0,0,0,0,0c0.1,0,0.2,0.1,0.2,0.2
			C26.4,65,26.4,65.1,26.4,65.1"/>
	</g>
</g>
<g>
	<defs>
		<rect id="SVGID_7_" x="101.9" y="40.7" width="15.3" height="15.3"/>
	</defs>
	<clipPath id="SVGID_8_">
		<use xlink:href="#SVGID_7_"  overflow="visible"/>
	</clipPath>
	<g clip-path="url(#SVGID_8_)">
		<defs>
			<rect id="SVGID_9_" x="101.9" y="40.7" width="15.3" height="15.3"/>
		</defs>
		<clipPath id="SVGID_10_">
			<use xlink:href="#SVGID_9_"  overflow="visible"/>
		</clipPath>
		<g clip-path="url(#SVGID_10_)">
			<defs>
				<rect id="SVGID_11_" x="101.9" y="40.7" width="15.3" height="15.3"/>
			</defs>
			<clipPath id="SVGID_12_">
				<use xlink:href="#SVGID_11_"  overflow="visible"/>
			</clipPath>
			<path clip-path="url(#SVGID_12_)" fill="#F18B00" d="M105.8,54.5v-6.9l-0.7,0.7c-0.1,0.1-0.2,0.1-0.2,0.1c-0.2,0-0.3-0.2-0.3-0.3
				c0-0.1,0-0.2,0.1-0.2l0,0l0,0c0,0,0,0,0,0l0.6-0.6h-3.3v7.2v0.1H105.8z"/>
			<path clip-path="url(#SVGID_12_)" fill="#F18B00" d="M107.7,45.1C107.7,45.1,107.7,45.1,107.7,45.1L107.7,45.1
				c-0.3,0-0.7,0.5-0.9,1.1c0.5-0.2,0.9-0.4,1.1-0.6c0.1-0.1,0.1-0.1,0.1-0.2C108,45.2,107.9,45.1,107.7,45.1"/>
			<path clip-path="url(#SVGID_12_)" fill="#F18B00" d="M116.7,40.7h-10.1v4.5c0.3-0.4,0.7-0.8,1.1-0.8c0.3,0,0.5,0.1,0.7,0.4
				c0.3,0.3,0.3,0.7,0.2,0.9c-0.1,0.3-0.4,0.6-0.7,0.8h9.2v-5.3C117.2,40.9,116.9,40.7,116.7,40.7"/>
			<path clip-path="url(#SVGID_12_)" fill="#F18B00" d="M103.8,45.7c-0.1-0.2-0.1-0.5,0.2-0.9c0.2-0.2,0.5-0.4,0.7-0.4
				c0.4,0,0.8,0.3,1.1,0.7v-4.5h-3.5c-0.3,0-0.5,0.2-0.5,0.5v5.3h2.6C104.2,46.2,103.9,46,103.8,45.7"/>
			<path clip-path="url(#SVGID_12_)" fill="#F18B00" d="M104.8,45.1C104.7,45.1,104.7,45.1,104.8,45.1c-0.2,0-0.3,0.1-0.3,0.3
				c0,0,0,0,0,0.1c0,0,0,0,0,0c0.1,0.2,0.6,0.5,1.2,0.7C105.3,45.6,105,45.1,104.8,45.1"/>
			<path clip-path="url(#SVGID_12_)" fill="#F18B00" d="M107.2,47.2l0.6,0.5c0,0,0,0,0.1,0.1l0,0l0,0c0,0.1,0.1,0.1,0.1,0.2
				c0,0.2-0.2,0.3-0.3,0.3c-0.1,0-0.1,0-0.2-0.1l0,0l0,0c0,0,0,0,0,0l-0.7-0.7v7h10.6v-0.1v-7.2H107.2z"/>
			<path clip-path="url(#SVGID_12_)" fill="#E3131B" d="M107.9,46.4c0.3-0.2,0.6-0.5,0.7-0.8c0.1-0.2,0.1-0.5-0.2-0.9
				c-0.2-0.2-0.5-0.4-0.7-0.4c-0.4,0-0.8,0.3-1.1,0.8v-4.5h-0.8v4.5c-0.3-0.4-0.6-0.7-1.1-0.7c-0.3,0-0.5,0.1-0.7,0.4
				c-0.3,0.3-0.3,0.7-0.2,0.9c0.1,0.3,0.4,0.6,0.7,0.8h-2.6v0.8h3.3l-0.6,0.6c0,0,0,0,0,0l0,0l0,0c-0.1,0.1-0.1,0.1-0.1,0.2
				c0,0.2,0.2,0.3,0.3,0.3c0.1,0,0.2,0,0.2-0.1l0.7-0.7v6.9V56h0.8v-1.4v-7l0.7,0.7c0,0,0,0,0,0l0,0l0,0c0.1,0,0.1,0.1,0.2,0.1
				c0.2,0,0.3-0.2,0.3-0.3c0-0.1,0-0.1-0.1-0.2l0,0l0,0c0,0,0,0-0.1-0.1l-0.6-0.5h10v-0.8H107.9z M104.4,45.5
				C104.4,45.5,104.4,45.4,104.4,45.5C104.4,45.4,104.4,45.4,104.4,45.5c0-0.2,0.1-0.4,0.3-0.4c0,0,0,0,0.1,0c0.2,0,0.6,0.5,0.9,1.1
				C105.1,46,104.5,45.7,104.4,45.5 M106.8,46.2c0.3-0.6,0.6-1.1,0.9-1.1c0,0,0,0,0,0c0,0,0,0,0.1,0c0.2,0,0.3,0.1,0.3,0.3
				c0,0.1,0,0.2-0.1,0.2C107.7,45.8,107.3,46,106.8,46.2"/>
			<g clip-path="url(#SVGID_12_)">
				<g>
					<defs>
						<rect id="SVGID_13_" x="105.8" y="54.5" width="0.8" height="1.4"/>
					</defs>
					<clipPath id="SVGID_14_">
						<use xlink:href="#SVGID_13_"  overflow="visible"/>
					</clipPath>
					<rect x="105.8" y="54.5" clip-path="url(#SVGID_14_)" fill="#E84B53" width="0.8" height="1.4"/>
				</g>
			</g>
			<path clip-path="url(#SVGID_12_)" fill="#FFFFFF" d="M103.9,43.6h-0.3v-0.3c0-0.1-0.1-0.1-0.1-0.1c-0.1,0-0.1,0.1-0.1,0.1v0.3
				H103c-0.1,0-0.1,0.1-0.1,0.1s0.1,0.1,0.1,0.1h0.3v0.3c0,0.1,0.1,0.1,0.1,0.1c0.1,0,0.1-0.1,0.1-0.1v-0.3h0.3
				c0.1,0,0.1-0.1,0.1-0.1S104,43.6,103.9,43.6"/>
			<path clip-path="url(#SVGID_12_)" fill="#FFFFFF" d="M103.9,49.5h-0.3v-0.3c0-0.1-0.1-0.1-0.1-0.1c-0.1,0-0.1,0.1-0.1,0.1v0.3
				H103c-0.1,0-0.1,0.1-0.1,0.1s0.1,0.1,0.1,0.1h0.3v0.3c0,0.1,0.1,0.1,0.1,0.1c0.1,0,0.1-0.1,0.1-0.1v-0.3h0.3
				c0.1,0,0.1-0.1,0.1-0.1S104,49.5,103.9,49.5"/>
			<path clip-path="url(#SVGID_12_)" fill="#FFFFFF" d="M103.9,53.1h-0.3v-0.3c0-0.1-0.1-0.1-0.1-0.1c-0.1,0-0.1,0.1-0.1,0.1v0.3
				H103c-0.1,0-0.1,0.1-0.1,0.1s0.1,0.1,0.1,0.1h0.3v0.3c0,0.1,0.1,0.1,0.1,0.1c0.1,0,0.1-0.1,0.1-0.1v-0.3h0.3
				c0.1,0,0.1-0.1,0.1-0.1S104,53.1,103.9,53.1"/>
			<path clip-path="url(#SVGID_12_)" fill="#FFFFFF" d="M109.7,43.6h-0.3v-0.3c0-0.1-0.1-0.1-0.1-0.1c-0.1,0-0.1,0.1-0.1,0.1v0.3
				h-0.3c-0.1,0-0.1,0.1-0.1,0.1s0.1,0.1,0.1,0.1h0.3v0.3c0,0.1,0.1,0.1,0.1,0.1c0.1,0,0.1-0.1,0.1-0.1v-0.3h0.3
				c0.1,0,0.1-0.1,0.1-0.1S109.7,43.6,109.7,43.6"/>
			<path clip-path="url(#SVGID_12_)" fill="#FFFFFF" d="M112.5,43.6h-0.3v-0.3c0-0.1-0.1-0.1-0.1-0.1c-0.1,0-0.1,0.1-0.1,0.1v0.3
				h-0.3c-0.1,0-0.1,0.1-0.1,0.1s0.1,0.1,0.1,0.1h0.3v0.3c0,0.1,0.1,0.1,0.1,0.1c0.1,0,0.1-0.1,0.1-0.1v-0.3h0.3
				c0.1,0,0.1-0.1,0.1-0.1S112.6,43.6,112.5,43.6"/>
			<path clip-path="url(#SVGID_12_)" fill="#FFFFFF" d="M114.5,43.9h0.3v0.3c0,0.1,0.1,0.1,0.1,0.1c0.1,0,0.1-0.1,0.1-0.1v-0.3h0.3
				c0.1,0,0.1-0.1,0.1-0.1c0-0.1-0.1-0.1-0.1-0.1h-0.3v-0.3c0-0.1-0.1-0.1-0.1-0.1c-0.1,0-0.1,0.1-0.1,0.1v0.3h-0.3
				c-0.1,0-0.1,0.1-0.1,0.1C114.4,43.8,114.5,43.9,114.5,43.9"/>
			<path clip-path="url(#SVGID_12_)" fill="#FFFFFF" d="M109.7,49.5h-0.3v-0.3c0-0.1-0.1-0.1-0.1-0.1c-0.1,0-0.1,0.1-0.1,0.1v0.3
				h-0.3c-0.1,0-0.1,0.1-0.1,0.1s0.1,0.1,0.1,0.1h0.3v0.3c0,0.1,0.1,0.1,0.1,0.1c0.1,0,0.1-0.1,0.1-0.1v-0.3h0.3
				c0.1,0,0.1-0.1,0.1-0.1S109.7,49.5,109.7,49.5"/>
			<path clip-path="url(#SVGID_12_)" fill="#FFFFFF" d="M109.7,53.1h-0.3v-0.3c0-0.1-0.1-0.1-0.1-0.1c-0.1,0-0.1,0.1-0.1,0.1v0.3
				h-0.3c-0.1,0-0.1,0.1-0.1,0.1s0.1,0.1,0.1,0.1h0.3v0.3c0,0.1,0.1,0.1,0.1,0.1c0.1,0,0.1-0.1,0.1-0.1v-0.3h0.3
				c0.1,0,0.1-0.1,0.1-0.1S109.7,53.1,109.7,53.1"/>
			<path clip-path="url(#SVGID_12_)" fill="#FFFFFF" d="M112.5,49.5h-0.3v-0.3c0-0.1-0.1-0.1-0.1-0.1c-0.1,0-0.1,0.1-0.1,0.1v0.3
				h-0.3c-0.1,0-0.1,0.1-0.1,0.1s0.1,0.1,0.1,0.1h0.3v0.3c0,0.1,0.1,0.1,0.1,0.1c0.1,0,0.1-0.1,0.1-0.1v-0.3h0.3
				c0.1,0,0.1-0.1,0.1-0.1S112.6,49.5,112.5,49.5"/>
			<path clip-path="url(#SVGID_12_)" fill="#FFFFFF" d="M112.5,53.1h-0.3v-0.3c0-0.1-0.1-0.1-0.1-0.1c-0.1,0-0.1,0.1-0.1,0.1v0.3
				h-0.3c-0.1,0-0.1,0.1-0.1,0.1s0.1,0.1,0.1,0.1h0.3v0.3c0,0.1,0.1,0.1,0.1,0.1c0.1,0,0.1-0.1,0.1-0.1v-0.3h0.3
				c0.1,0,0.1-0.1,0.1-0.1S112.6,53.1,112.5,53.1"/>
			<path clip-path="url(#SVGID_12_)" fill="#FFFFFF" d="M115.5,49.5h-0.3v-0.3c0-0.1-0.1-0.1-0.1-0.1c-0.1,0-0.1,0.1-0.1,0.1v0.3
				h-0.3c-0.1,0-0.1,0.1-0.1,0.1s0.1,0.1,0.1,0.1h0.3v0.3c0,0.1,0.1,0.1,0.1,0.1c0.1,0,0.1-0.1,0.1-0.1v-0.3h0.3
				c0.1,0,0.1-0.1,0.1-0.1S115.5,49.5,115.5,49.5"/>
			<path clip-path="url(#SVGID_12_)" fill="#FFFFFF" d="M115.5,53.1h-0.3v-0.3c0-0.1-0.1-0.1-0.1-0.1c-0.1,0-0.1,0.1-0.1,0.1v0.3
				h-0.3c-0.1,0-0.1,0.1-0.1,0.1s0.1,0.1,0.1,0.1h0.3v0.3c0,0.1,0.1,0.1,0.1,0.1c0.1,0,0.1-0.1,0.1-0.1v-0.3h0.3
				c0.1,0,0.1-0.1,0.1-0.1S115.5,53.1,115.5,53.1"/>
			<path clip-path="url(#SVGID_12_)" fill="#F18B00" d="M101.9,54.5v1c0,0.3,0.2,0.5,0.5,0.5h3.5v-1.4H101.9z"/>
			<path clip-path="url(#SVGID_12_)" fill="#F18B00" d="M106.6,56h10.1c0.3,0,0.5-0.2,0.5-0.5v-1h-10.6V56z"/>
			<g clip-path="url(#SVGID_12_)">
				<g>
					<defs>
						<rect id="SVGID_15_" x="101.9" y="54.5" width="3.9" height="1.4"/>
					</defs>
					<clipPath id="SVGID_16_">
						<use xlink:href="#SVGID_15_"  overflow="visible"/>
					</clipPath>
					<path clip-path="url(#SVGID_16_)" fill="#87909A" d="M101.9,54.5v1c0,0.3,0.2,0.5,0.5,0.5h3.5v-1.4H101.9z"/>
				</g>
			</g>
			<g clip-path="url(#SVGID_12_)">
				<g>
					<defs>
						<rect id="SVGID_17_" x="106.6" y="54.5" width="10.6" height="1.4"/>
					</defs>
					<clipPath id="SVGID_18_">
						<use xlink:href="#SVGID_17_"  overflow="visible"/>
					</clipPath>
					<path clip-path="url(#SVGID_18_)" fill="#87909A" d="M106.6,56h10.1c0.3,0,0.5-0.2,0.5-0.5v-1h-10.6V56z"/>
				</g>
			</g>
		</g>
	</g>
</g>
<g>
	<g>
		<path fill="none" stroke="#DC1928" stroke-width="2" stroke-miterlimit="10" d="M64,55.1c0.7,0.2,1.3,0.3,1.9,0.5"/>
		<path fill="none" stroke="#DC1928" stroke-width="2" stroke-miterlimit="10" stroke-dasharray="3.9647,1.9824" d="M67.8,56.3
			c21.8,7.9,34.5,32.4,58.3,38.2"/>
		<path fill="none" stroke="#DC1928" stroke-width="2" stroke-miterlimit="10" d="M127.2,94.7c0.6,0.1,1.3,0.3,2,0.4"/>
	</g>
</g>
<g>
	<g>
		<path fill="none" stroke="#DC1928" stroke-width="2" stroke-miterlimit="10" d="M65,93.8c-0.1,0.7-0.1,1.4-0.1,2"/>
		<path fill="none" stroke="#DC1928" stroke-width="2" stroke-miterlimit="10" stroke-dasharray="3.8916,1.9458" d="M65.3,97.7
			c4.1,11.3,39.6-9.3,61-3.5"/>
		<path fill="none" stroke="#DC1928" stroke-width="2" stroke-miterlimit="10" d="M127.2,94.4c0.6,0.2,1.3,0.4,1.9,0.7"/>
	</g>
</g>
<g>
	<g>
		<path fill="none" stroke="#DC1928" stroke-width="2" stroke-miterlimit="10" d="M22.5,74.2c0.2,0.6,0.5,1.3,0.7,1.9"/>
		<path fill="none" stroke="#DC1928" stroke-width="2" stroke-miterlimit="10" stroke-dasharray="4.0321,2.016" d="M24,78
			c16,37.6,61.1,45.7,90.7,24.9"/>
		<path fill="none" stroke="#DC1928" stroke-width="2" stroke-miterlimit="10" d="M115.6,102.3c0.5-0.4,1.1-0.8,1.6-1.2"/>
	</g>
</g>
<g>
	<g>
		<path fill="none" stroke="#DC1928" stroke-width="2" stroke-miterlimit="10" d="M118.4,53.1c0.7,0.1,1.4,0.3,2,0.4"/>
		<path fill="none" stroke="#DC1928" stroke-width="2" stroke-miterlimit="10" stroke-dasharray="4.1836,2.0918" d="M122.4,54.1
			c13.3,5.1-11.5,19.7,4.7,38.7"/>
		<path fill="none" stroke="#DC1928" stroke-width="2" stroke-miterlimit="10" d="M127.7,93.7c0.4,0.5,0.9,1,1.4,1.5"/>
	</g>
</g>
<g>
	<g>
		<path fill="none" stroke="#DC1928" stroke-width="2" stroke-miterlimit="10" d="M76.6,33.6c0.7,0.1,1.3,0.3,1.9,0.5"/>
		<path fill="none" stroke="#DC1928" stroke-width="2" stroke-miterlimit="10" stroke-dasharray="4.1306,2.0653" d="M80.4,34.8
			c18.4,8.8,24.9,53,48.4,51"/>
		<path fill="none" stroke="#DC1928" stroke-width="2" stroke-miterlimit="10" d="M129.8,85.8c0.6-0.1,1.3-0.2,2-0.4"/>
	</g>
</g>
<g>
	<defs>
		<rect id="SVGID_19_" x="52.6" y="38.7" width="16.3" height="16.3"/>
	</defs>
	<clipPath id="SVGID_20_">
		<use xlink:href="#SVGID_19_"  overflow="visible"/>
	</clipPath>
	<g clip-path="url(#SVGID_20_)">
		<defs>
			<rect id="SVGID_21_" x="52.6" y="38.7" width="16.3" height="16.3"/>
		</defs>
		<clipPath id="SVGID_22_">
			<use xlink:href="#SVGID_21_"  overflow="visible"/>
		</clipPath>
		<path clip-path="url(#SVGID_22_)" fill="#FFDA72" d="M58.9,43.4C58.9,43.4,58.8,43.4,58.9,43.4L58.9,43.4c-0.3,0-0.7,0.5-1,1.2
			c0.5-0.2,1-0.4,1.2-0.7c0.1-0.1,0.1-0.1,0.1-0.2C59.2,43.5,59,43.4,58.9,43.4"/>
		<path clip-path="url(#SVGID_22_)" fill="#FFDA72" d="M68.5,38.7H57.7v4.8c0.3-0.4,0.7-0.8,1.2-0.8c0.3,0,0.6,0.1,0.8,0.4
			c0.3,0.4,0.3,0.7,0.2,0.9c-0.1,0.3-0.4,0.6-0.8,0.8H69v-5.6C69,38.9,68.7,38.7,68.5,38.7"/>
		<path clip-path="url(#SVGID_22_)" fill="#FFDA72" d="M54.7,44c-0.1-0.2-0.1-0.6,0.2-0.9c0.2-0.3,0.5-0.4,0.8-0.4
			c0.5,0,0.8,0.4,1.1,0.8v-4.8h-3.7c-0.3,0-0.5,0.2-0.5,0.5v5.6h2.8C55.1,44.6,54.8,44.3,54.7,44"/>
		<path clip-path="url(#SVGID_22_)" fill="#FFDA72" d="M55.7,43.4C55.7,43.4,55.7,43.4,55.7,43.4c-0.2,0-0.4,0.1-0.4,0.3
			c0,0,0,0,0,0.1c0,0,0,0,0,0c0.1,0.3,0.7,0.6,1.3,0.8C56.3,43.9,56,43.4,55.7,43.4"/>
		<path clip-path="url(#SVGID_22_)" fill="#FFDA72" d="M55.8,46.9c-0.2,0-0.4-0.2-0.4-0.4c0-0.1,0-0.2,0.1-0.3l0,0l0,0c0,0,0,0,0,0
			l0.7-0.6h-3.6v7.7v0.1v1c0,0.3,0.2,0.5,0.5,0.5h3.7v-1.5V46l-0.8,0.8C56,46.9,55.9,46.9,55.8,46.9"/>
		<path clip-path="url(#SVGID_22_)" fill="#FFDA72" d="M69,45.7H58.3l0.6,0.6c0,0,0,0,0.1,0.1l0,0l0,0c0,0.1,0.1,0.1,0.1,0.2
			c0,0.2-0.2,0.4-0.4,0.4c-0.1,0-0.2,0-0.2-0.1l0,0l0,0c0,0,0,0,0,0L57.7,46v7.4V55h10.8c0.3,0,0.5-0.2,0.5-0.5v-1v-0.1V45.7z"/>
		<path clip-path="url(#SVGID_22_)" fill="#E3131B" d="M59.1,44.8c0.4-0.2,0.7-0.5,0.8-0.8c0.1-0.2,0.1-0.6-0.2-0.9
			c-0.2-0.3-0.5-0.4-0.8-0.4c-0.5,0-0.8,0.4-1.2,0.8v-4.8h-0.8v4.8c-0.3-0.4-0.7-0.8-1.1-0.8c-0.3,0-0.6,0.1-0.8,0.4
			c-0.3,0.4-0.3,0.7-0.2,0.9c0.1,0.3,0.4,0.6,0.8,0.8h-2.8v0.9h3.6l-0.7,0.6c0,0,0,0,0,0l0,0l0,0c-0.1,0.1-0.1,0.2-0.1,0.3
			c0,0.2,0.2,0.4,0.4,0.4c0.1,0,0.2,0,0.3-0.1l0.8-0.8v7.4V55h0.8v-1.5V46l0.7,0.7c0,0,0,0,0,0l0,0l0,0c0.1,0,0.1,0.1,0.2,0.1
			c0.2,0,0.4-0.2,0.4-0.4c0-0.1,0-0.2-0.1-0.2l0,0l0,0c0,0,0,0-0.1-0.1l-0.6-0.6H69v-0.9H59.1z M55.4,43.8
			C55.4,43.8,55.4,43.7,55.4,43.8C55.4,43.7,55.3,43.7,55.4,43.8c0-0.3,0.1-0.4,0.3-0.4c0,0,0,0,0.1,0c0.3,0,0.6,0.5,0.9,1.2
			C56,44.3,55.4,44,55.4,43.8 M57.9,44.5c0.3-0.6,0.7-1.2,0.9-1.2l0,0c0,0,0,0,0.1,0c0.2,0,0.3,0.1,0.3,0.3c0,0.1,0,0.2-0.1,0.2
			C58.9,44.1,58.4,44.4,57.9,44.5"/>
		<path clip-path="url(#SVGID_22_)" fill="#E3131B" d="M54.8,41.8h-0.4v-0.4c0-0.1-0.1-0.1-0.1-0.1c-0.1,0-0.1,0.1-0.1,0.1v0.4h-0.4
			c-0.1,0-0.1,0.1-0.1,0.1s0.1,0.1,0.1,0.1h0.4v0.4c0,0.1,0.1,0.1,0.1,0.1c0.1,0,0.1-0.1,0.1-0.1v-0.4h0.4c0.1,0,0.1-0.1,0.1-0.1
			S54.9,41.8,54.8,41.8"/>
		<path clip-path="url(#SVGID_22_)" fill="#E3131B" d="M54.8,48.1h-0.4v-0.4c0-0.1-0.1-0.1-0.1-0.1c-0.1,0-0.1,0.1-0.1,0.1v0.4h-0.4
			c-0.1,0-0.1,0.1-0.1,0.1c0,0.1,0.1,0.1,0.1,0.1h0.4v0.4c0,0.1,0.1,0.1,0.1,0.1c0.1,0,0.1-0.1,0.1-0.1v-0.4h0.4
			c0.1,0,0.1-0.1,0.1-0.1C54.9,48.1,54.9,48.1,54.8,48.1"/>
		<path clip-path="url(#SVGID_22_)" fill="#E3131B" d="M54.8,51.9h-0.4v-0.4c0-0.1-0.1-0.1-0.1-0.1c-0.1,0-0.1,0.1-0.1,0.1v0.4h-0.4
			c-0.1,0-0.1,0.1-0.1,0.1c0,0.1,0.1,0.1,0.1,0.1h0.4v0.4c0,0.1,0.1,0.1,0.1,0.1c0.1,0,0.1-0.1,0.1-0.1v-0.4h0.4
			c0.1,0,0.1-0.1,0.1-0.1C54.9,52,54.9,51.9,54.8,51.9"/>
		<path clip-path="url(#SVGID_22_)" fill="#E3131B" d="M61,41.8h-0.4v-0.4c0-0.1-0.1-0.1-0.1-0.1c-0.1,0-0.1,0.1-0.1,0.1v0.4H60
			c-0.1,0-0.1,0.1-0.1,0.1s0.1,0.1,0.1,0.1h0.4v0.4c0,0.1,0.1,0.1,0.1,0.1c0.1,0,0.1-0.1,0.1-0.1v-0.4H61c0.1,0,0.1-0.1,0.1-0.1
			S61,41.8,61,41.8"/>
		<path clip-path="url(#SVGID_22_)" fill="#E3131B" d="M64,41.8h-0.4v-0.4c0-0.1-0.1-0.1-0.1-0.1c-0.1,0-0.1,0.1-0.1,0.1v0.4H63
			c-0.1,0-0.1,0.1-0.1,0.1s0.1,0.1,0.1,0.1h0.4v0.4c0,0.1,0.1,0.1,0.1,0.1c0.1,0,0.1-0.1,0.1-0.1v-0.4H64c0.1,0,0.1-0.1,0.1-0.1
			S64.1,41.8,64,41.8"/>
		<path clip-path="url(#SVGID_22_)" fill="#E3131B" d="M66.2,42.1h0.4v0.4c0,0.1,0.1,0.1,0.1,0.1c0.1,0,0.1-0.1,0.1-0.1v-0.4h0.4
			c0.1,0,0.1-0.1,0.1-0.1s-0.1-0.1-0.1-0.1h-0.4v-0.4c0-0.1-0.1-0.1-0.1-0.1c-0.1,0-0.1,0.1-0.1,0.1v0.4h-0.4
			c-0.1,0-0.1,0.1-0.1,0.1S66.1,42.1,66.2,42.1"/>
		<path clip-path="url(#SVGID_22_)" fill="#E3131B" d="M61,48.1h-0.4v-0.4c0-0.1-0.1-0.1-0.1-0.1c-0.1,0-0.1,0.1-0.1,0.1v0.4H60
			c-0.1,0-0.1,0.1-0.1,0.1c0,0.1,0.1,0.1,0.1,0.1h0.4v0.4c0,0.1,0.1,0.1,0.1,0.1c0.1,0,0.1-0.1,0.1-0.1v-0.4H61
			c0.1,0,0.1-0.1,0.1-0.1C61.1,48.1,61,48.1,61,48.1"/>
		<path clip-path="url(#SVGID_22_)" fill="#E3131B" d="M61,51.9h-0.4v-0.4c0-0.1-0.1-0.1-0.1-0.1c-0.1,0-0.1,0.1-0.1,0.1v0.4H60
			c-0.1,0-0.1,0.1-0.1,0.1c0,0.1,0.1,0.1,0.1,0.1h0.4v0.4c0,0.1,0.1,0.1,0.1,0.1c0.1,0,0.1-0.1,0.1-0.1v-0.4H61
			c0.1,0,0.1-0.1,0.1-0.1C61.1,52,61,51.9,61,51.9"/>
		<path clip-path="url(#SVGID_22_)" fill="#E3131B" d="M64,48.1h-0.4v-0.4c0-0.1-0.1-0.1-0.1-0.1c-0.1,0-0.1,0.1-0.1,0.1v0.4H63
			c-0.1,0-0.1,0.1-0.1,0.1c0,0.1,0.1,0.1,0.1,0.1h0.4v0.4c0,0.1,0.1,0.1,0.1,0.1c0.1,0,0.1-0.1,0.1-0.1v-0.4H64
			c0.1,0,0.1-0.1,0.1-0.1C64.1,48.1,64.1,48.1,64,48.1"/>
		<path clip-path="url(#SVGID_22_)" fill="#E3131B" d="M64,51.9h-0.4v-0.4c0-0.1-0.1-0.1-0.1-0.1c-0.1,0-0.1,0.1-0.1,0.1v0.4H63
			c-0.1,0-0.1,0.1-0.1,0.1c0,0.1,0.1,0.1,0.1,0.1h0.4v0.4c0,0.1,0.1,0.1,0.1,0.1c0.1,0,0.1-0.1,0.1-0.1v-0.4H64
			c0.1,0,0.1-0.1,0.1-0.1C64.1,52,64.1,51.9,64,51.9"/>
		<path clip-path="url(#SVGID_22_)" fill="#E3131B" d="M67.2,48.1h-0.4v-0.4c0-0.1-0.1-0.1-0.1-0.1c-0.1,0-0.1,0.1-0.1,0.1v0.4h-0.4
			c-0.1,0-0.1,0.1-0.1,0.1c0,0.1,0.1,0.1,0.1,0.1h0.4v0.4c0,0.1,0.1,0.1,0.1,0.1c0.1,0,0.1-0.1,0.1-0.1v-0.4h0.4
			c0.1,0,0.1-0.1,0.1-0.1C67.3,48.1,67.2,48.1,67.2,48.1"/>
		<path clip-path="url(#SVGID_22_)" fill="#E3131B" d="M67.2,51.9h-0.4v-0.4c0-0.1-0.1-0.1-0.1-0.1c-0.1,0-0.1,0.1-0.1,0.1v0.4h-0.4
			c-0.1,0-0.1,0.1-0.1,0.1c0,0.1,0.1,0.1,0.1,0.1h0.4v0.4c0,0.1,0.1,0.1,0.1,0.1c0.1,0,0.1-0.1,0.1-0.1v-0.4h0.4
			c0.1,0,0.1-0.1,0.1-0.1C67.3,52,67.2,51.9,67.2,51.9"/>
	</g>
</g>
<g>
	<defs>
		<rect id="SVGID_23_" x="56" y="66.3" width="11.6" height="26.2"/>
	</defs>
	<clipPath id="SVGID_24_">
		<use xlink:href="#SVGID_23_"  overflow="visible"/>
	</clipPath>
	<g clip-path="url(#SVGID_24_)">
		<defs>
			<rect id="SVGID_25_" x="56" y="66.3" width="11.6" height="26.2"/>
		</defs>
		<clipPath id="SVGID_26_">
			<use xlink:href="#SVGID_25_"  overflow="visible"/>
		</clipPath>
		<g clip-path="url(#SVGID_26_)">
			<defs>
				<rect id="SVGID_27_" x="56" y="66.3" width="11.6" height="26.2"/>
			</defs>
			<clipPath id="SVGID_28_">
				<use xlink:href="#SVGID_27_"  overflow="visible"/>
			</clipPath>
			<g clip-path="url(#SVGID_28_)">
				<g>
					<defs>
						<rect id="SVGID_29_" x="56" y="90.9" width="11.6" height="1.6"/>
					</defs>
					<clipPath id="SVGID_30_">
						<use xlink:href="#SVGID_29_"  overflow="visible"/>
					</clipPath>
					<path clip-path="url(#SVGID_30_)" fill="#5ABAA3" d="M67.6,90.9H56v1c0,0.3,0.2,0.5,0.5,0.5H67c0.3,0,0.5-0.2,0.5-0.5"/>
				</g>
			</g>
			<path clip-path="url(#SVGID_28_)" fill="#5ABAA3" d="M67,66.3H56.5c-0.3,0-0.5,0.2-0.5,0.5v19.1v1.8v1.9v0.2
				c0,0.1,0.1,0.3,0.3,0.3h4.4h0.5h6.2c0.1,0,0.3-0.1,0.3-0.3v-0.2v-1.9V66.9C67.6,66.6,67.3,66.3,67,66.3"/>
			<path clip-path="url(#SVGID_28_)" fill="#5ABAA3" d="M62.2,72.5C62.2,72.5,62.2,72.5,62.2,72.5C62.2,72.5,62.2,72.5,62.2,72.5
				C62.2,72.5,62.2,72.5,62.2,72.5c-0.3,0-0.6,0.4-0.8,0.9c0.3-0.1,0.7-0.3,0.8-0.4V72.5z"/>
			<path clip-path="url(#SVGID_28_)" fill="#5ABAA3" d="M59.7,72.5C59.7,72.5,59.7,72.5,59.7,72.5C59.6,72.5,59.6,72.5,59.7,72.5
				c-0.2,0-0.3,0.1-0.3,0.2c0,0,0,0,0,0c0,0,0,0,0,0c0.1,0.2,0.5,0.4,1,0.6C60.2,72.9,59.9,72.5,59.7,72.5"/>
			<path clip-path="url(#SVGID_28_)" fill="#5ABAA3" d="M61.5,74.1l0.7,0.7c0,0,0,0,0,0v-0.7H61.5z"/>
			<path clip-path="url(#SVGID_28_)" fill="#BEC4C9" d="M62.2,73c0,0,0.1-0.1,0.1-0.1c0,0,0.1-0.1,0.1-0.2c0-0.1-0.1-0.2-0.2-0.2"/>
			<path clip-path="url(#SVGID_28_)" fill="#CFD4D7" d="M66.2,71.7h-3.8c-0.1,0-0.2,0.1-0.2,0.2v0.1c0.2,0,0.4,0.1,0.5,0.3
				c0.3,0.3,0.2,0.6,0.2,0.7c-0.1,0.3-0.3,0.5-0.6,0.6h4v-1.8C66.4,71.7,66.3,71.7,66.2,71.7"/>
			<path clip-path="url(#SVGID_28_)" fill="#FFFFFF" d="M62.4,79.6h3.8c0.1,0,0.2-0.1,0.2-0.2v-4.7h-4.1l0,0l0,0
				c0,0,0.1,0.1,0.1,0.2c0,0.1,0,0.1-0.1,0.2v4.3C62.2,79.6,62.3,79.6,62.4,79.6"/>
			<path clip-path="url(#SVGID_28_)" fill="#CFD4D7" d="M66.4,74.1h-4.2v0.7c0,0,0,0,0,0l0,0h4.1V74.1z"/>
			<g clip-path="url(#SVGID_28_)">
				<g>
					<defs>
						<rect id="SVGID_31_" x="62.2" y="74.1" width="4.2" height="0.7"/>
					</defs>
					<clipPath id="SVGID_32_">
						<use xlink:href="#SVGID_31_"  overflow="visible"/>
					</clipPath>
					<path clip-path="url(#SVGID_32_)" fill="#C3C7CD" d="M66.4,74.1h-4.2v0.7c0,0,0,0,0,0l0,0h4.1V74.1z"/>
				</g>
			</g>
			<g clip-path="url(#SVGID_28_)">
				<g>
					<defs>
						<rect id="SVGID_33_" x="56" y="89.8" width="11.6" height="1.1"/>
					</defs>
					<clipPath id="SVGID_34_">
						<use xlink:href="#SVGID_33_"  overflow="visible"/>
					</clipPath>
					<path clip-path="url(#SVGID_34_)" fill="#40B5A6" d="M67.3,90.1h-6.6h-0.3h-4.2c-0.1,0-0.3-0.1-0.3-0.3v1.1h4.4h0.3h6.9v-1.1
						C67.6,90,67.4,90.1,67.3,90.1"/>
				</g>
			</g>
			<g clip-path="url(#SVGID_28_)">
				<g>
					<defs>
						<rect id="SVGID_35_" x="56" y="89.8" width="11.6" height="1.1"/>
					</defs>
					<clipPath id="SVGID_36_">
						<use xlink:href="#SVGID_35_"  overflow="visible"/>
					</clipPath>
					<path clip-path="url(#SVGID_36_)" fill="#CFD4D7" d="M67.3,90.1h-6.6h-0.3h-4.2c-0.1,0-0.3-0.1-0.3-0.3v1.1h4.4h0.3h6.9v-1.1
						C67.6,90,67.4,90.1,67.3,90.1"/>
				</g>
			</g>
			<path clip-path="url(#SVGID_28_)" fill="#FFFFFF" d="M67.6,73.6h-5.2c0.3-0.2,0.5-0.4,0.6-0.6c0.1-0.2,0.1-0.4-0.2-0.7
				c-0.2-0.2-0.3-0.3-0.5-0.3c0,0-0.1,0-0.1,0c-0.4,0-0.7,0.4-1,0.8v-6.3h-0.5v6.3c-0.3-0.4-0.6-0.8-1-0.8c-0.2,0-0.4,0.1-0.6,0.3
				c-0.3,0.3-0.2,0.6-0.2,0.7c0.1,0.3,0.3,0.5,0.6,0.6H56v0.5h4.3l-0.7,0.7c0,0,0,0,0,0l0,0l0,0c0,0.1-0.1,0.1-0.1,0.2
				c0,0.2,0.1,0.3,0.3,0.3c0.1,0,0.2,0,0.2-0.1l0.7-0.7l0,0v18h0.5v-18l0.1,0.1l0.6,0.6c0,0,0,0,0,0l0,0l0,0c0,0,0.1,0.1,0.2,0.1
				c0.1,0,0.2,0,0.2-0.1c0-0.1,0.1-0.1,0.1-0.2c0-0.1,0-0.1-0.1-0.2l0,0l0,0l0,0c0,0,0,0,0,0c0,0,0,0,0,0l-0.7-0.7h0.7h5.3V73.6z
				 M59.4,72.8C59.4,72.8,59.4,72.7,59.4,72.8C59.4,72.7,59.4,72.7,59.4,72.8c0-0.2,0.1-0.3,0.2-0.3c0,0,0,0,0,0c0,0,0,0,0,0
				c0.2,0,0.5,0.4,0.7,0.9C59.9,73.2,59.5,73,59.4,72.8 M61.4,73.4c0.2-0.5,0.5-0.9,0.7-0.9c0,0,0,0,0,0c0,0,0,0,0,0c0,0,0,0,0,0
				c0.1,0,0.2,0.1,0.2,0.2c0,0.1,0,0.1-0.1,0.2c0,0-0.1,0.1-0.1,0.1C62.1,73.1,61.7,73.3,61.4,73.4"/>
		</g>
	</g>
</g>
<g>
	<defs>
		<rect id="SVGID_37_" x="58.7" y="18.7" width="22" height="14.8"/>
	</defs>
	<clipPath id="SVGID_38_">
		<use xlink:href="#SVGID_37_"  overflow="visible"/>
	</clipPath>
	<g clip-path="url(#SVGID_38_)">
		<defs>
			<rect id="SVGID_39_" x="58.7" y="18.7" width="22" height="14.8"/>
		</defs>
		<clipPath id="SVGID_40_">
			<use xlink:href="#SVGID_39_"  overflow="visible"/>
		</clipPath>
		<path clip-path="url(#SVGID_40_)" fill="#005229" d="M67.3,25.8c-0.1-0.3-0.1-0.9,0.4-1.4c0.4-0.4,0.8-0.6,1.2-0.6
			c0.7,0,1.3,0.5,1.7,1.2v-6.3H59.2c-0.3,0-0.6,0.2-0.6,0.6V27h9.8C67.9,26.7,67.5,26.3,67.3,25.8"/>
		<path clip-path="url(#SVGID_40_)" fill="#005229" d="M73.7,29.2C73.8,29.3,73.8,29.3,73.7,29.2l0.1,0.1l0,0
			c0.1,0.1,0.1,0.2,0.1,0.3c0,0.3-0.2,0.6-0.6,0.6c-0.1,0-0.2,0-0.3-0.1l0,0l0,0c0,0,0,0-0.1-0.1l-1.1-1.1v4.7h8.3
			c0.3,0,0.6-0.2,0.6-0.6v-4.9h-8.1L73.7,29.2z"/>
		<path clip-path="url(#SVGID_40_)" fill="#005229" d="M68.9,24.9c0,0-0.1,0-0.1,0c-0.2,0-0.4,0.2-0.4,0.4c0,0,0,0.1,0,0.1
			c0,0,0,0,0,0.1c0.1,0.4,1,0.9,1.9,1.2C69.9,25.7,69.3,24.9,68.9,24.9"/>
		<path clip-path="url(#SVGID_40_)" fill="#005229" d="M73.6,23.8c0.4,0,0.8,0.2,1.2,0.6c0.5,0.6,0.5,1.1,0.4,1.4
			C75,26.3,74.6,26.7,74,27h6.7v-7.7c0-0.3-0.2-0.6-0.6-0.6h-8.3V25C72.3,24.3,72.9,23.8,73.6,23.8"/>
		<path clip-path="url(#SVGID_40_)" fill="#005229" d="M69.5,30.1c-0.1,0.1-0.2,0.2-0.4,0.2c-0.3,0-0.6-0.2-0.6-0.6
			c0-0.1,0.1-0.3,0.2-0.4l0,0l0,0c0,0,0,0,0,0l1.2-1.2H58.7V33c0,0.3,0.3,0.6,0.6,0.6h11.4v-4.6L69.5,30.1z"/>
		<path clip-path="url(#SVGID_40_)" fill="#005229" d="M73.7,24.9C73.7,24.9,73.7,24.9,73.7,24.9C73.6,24.9,73.6,24.9,73.7,24.9
			c-0.5,0-1.1,0.8-1.5,1.8c0.8-0.3,1.5-0.7,1.8-1c0.1-0.1,0.1-0.2,0.1-0.3C74.2,25.1,74,24.9,73.7,24.9"/>
		<path clip-path="url(#SVGID_40_)" fill="#E3131B" d="M70.6,18.7V25c-0.5-0.7-1.1-1.2-1.7-1.2c-0.4,0-0.8,0.2-1.2,0.6
			c-0.5,0.6-0.5,1.1-0.4,1.4c0.2,0.5,0.6,0.9,1.2,1.2h-9.8v1.1h11.3l-1.2,1.2c0,0,0,0,0,0l0,0l0,0c-0.1,0.1-0.2,0.2-0.2,0.4
			c0,0.3,0.2,0.6,0.6,0.6c0.2,0,0.3-0.1,0.4-0.2l1.2-1.2v4.6h1.2v-4.7L73,30c0,0,0,0,0.1,0.1l0,0l0,0c0.1,0.1,0.2,0.1,0.3,0.1
			c0.3,0,0.6-0.2,0.6-0.6c0-0.1,0-0.2-0.1-0.3l0,0l0,0c0,0-0.1-0.1-0.1-0.1l-1.1-1.1h8.1V27H74c0.5-0.3,1-0.7,1.2-1.2
			c0.1-0.3,0.1-0.9-0.4-1.4c-0.4-0.4-0.8-0.6-1.2-0.6c-0.7,0-1.3,0.6-1.8,1.2v-6.3H70.6z M68.4,25.5C68.4,25.5,68.4,25.4,68.4,25.5
			c0-0.1,0-0.1,0-0.1c0-0.2,0.2-0.4,0.4-0.4c0,0,0.1,0,0.1,0c0.4,0,0.9,0.8,1.4,1.8C69.4,26.3,68.5,25.9,68.4,25.5 M72.2,26.7
			c0.5-1,1-1.8,1.4-1.8c0,0,0,0,0,0c0,0,0.1,0,0.1,0c0.2,0,0.4,0.2,0.4,0.4c0,0.1-0.1,0.2-0.1,0.3C73.7,26,73,26.4,72.2,26.7"/>
	</g>
</g>
</svg>
